<svg width="499" height="805" viewBox="0 0 499 805" fill="none" xmlns="http://www.w3.org/2000/svg">
<mask id="mask0" mask-type="alpha" maskUnits="userSpaceOnUse" x="-144" y="0" width="1920" height="1079">
<rect x="-144" width="1920" height="1079" fill="#EBECF0"/>
</mask>
<g mask="url(#mask0)">
<path d="M256.094 286.976C250.225 286.348 237.65 294.517 237.65 294.517L242.68 298.707C242.68 298.707 256.932 300.383 257.141 297.031C257.561 293.889 259.028 287.395 256.094 286.976Z" fill="#F9AD8F"/>
<path d="M4.80371 236.912L16.7499 250.738L35.4028 253.88L52.379 241.521C24.9237 229.581 4.80371 236.912 4.80371 236.912Z" fill="#B29966"/>
<path d="M74.3853 324.053C88.4274 312.951 144.386 337.04 158.847 335.574C177.29 333.898 173.308 310.018 165.554 303.944C157.59 297.869 121.751 271.056 89.4753 261.84C78.3674 258.698 64.1158 332.222 74.3853 324.053Z" fill="#F7F0D2"/>
<path d="M129.925 327.614C132.44 320.073 149.416 297.031 164.716 302.058L167.65 317.35L145.224 331.175L129.925 327.614Z" fill="#E8D6AF"/>
<path d="M159.895 332.013C145.015 332.013 93.4574 310.228 70.8224 312.741C69.7745 322.168 70.6129 328.452 73.9662 325.729C88.0082 314.627 144.386 337.04 158.847 335.574C164.087 335.155 167.44 332.851 169.536 329.709C167.021 331.175 163.877 332.013 159.895 332.013Z" fill="#E8D6AF"/>
<path d="M188.189 570.601L193.847 599.299L200.973 592.805L196.782 559.08L188.189 570.601Z" fill="#E5D3C1"/>
<path d="M193.848 596.994C187.56 603.698 201.183 621.712 201.183 621.712L236.393 569.135C236.183 569.135 201.812 588.406 193.848 596.994Z" fill="#B29E8A"/>
<path d="M6.89954 248.643L14.8637 217.432L47.349 217.851L46.0915 253.461C46.3011 253.461 13.6062 261.002 6.89954 248.643Z" fill="#F9CBA5"/>
<path d="M-109.209 764.153L-59.1189 596.157L-39.8373 430.046L51.5408 402.396C51.5408 402.396 174.356 416.43 184.835 426.275C190.494 431.303 205.165 571.02 205.165 571.02L187.56 589.873C187.56 589.873 161.362 461.467 156.542 458.743C151.302 456.02 45.6725 467.332 26.1813 478.015C15.4925 483.88 -31.6636 603.907 -31.6636 603.907L-88.2509 762.687L-109.209 764.153Z" fill="#5B5149"/>
<path d="M185.045 426.065C185.045 442.614 170.584 463.77 156.332 458.324C156.542 458.324 156.752 458.534 156.961 458.534C161.782 461.257 187.979 589.663 187.979 589.663L205.584 570.81C205.375 570.81 190.704 431.302 185.045 426.065Z" fill="#514740"/>
<path d="M-40.0469 456.23C-40.0469 456.23 -21.1845 467.96 -2.74119 464.818L21.5704 430.674L53.0078 438.005C53.0078 438.005 66.4211 414.964 64.7445 404.071L37.2891 399.672L-29.1486 423.133L-40.0469 456.23Z" fill="#473C35"/>
<path d="M161.572 448.479C156.332 445.547 53.8462 460.419 34.5646 471.102C32.8879 472.149 28.0675 472.778 24.9238 478.853C51.9599 470.474 151.931 456.02 156.961 458.743C161.781 461.466 187.979 589.873 187.979 589.873L198.458 578.98C192.38 552.168 165.763 450.783 161.572 448.479Z" fill="#473C35"/>
<path d="M9.20508 479.062C21.3609 478.643 40.0138 469.217 49.445 457.486C49.445 457.486 43.7862 473.406 29.1154 479.69C17.798 484.718 9.20508 479.062 9.20508 479.062Z" fill="#473C35"/>
<path d="M-47.1726 445.965C-44.0289 452.668 -17.6214 461.466 -1.69313 458.743C2.9177 451.621 17.5885 429.208 19.8939 425.437C26.8101 427.741 41.6905 432.559 50.0738 433.188C57.1996 423.133 66.6309 405.747 66.8405 402.814C55.7326 398.415 45.2534 401.976 60.7626 356.73C68.098 335.364 96.6012 298.288 94.5054 265.401C93.6671 253.67 -3.36979 239.007 -21.6035 248.433C-39.8372 276.084 -37.3222 328.661 -36.2743 346.885C-35.436 366.157 -35.8551 382.914 -47.1726 445.965Z" fill="#F7F0D2"/>
<path d="M-0.854675 245.501L21.5707 265.61L30.1636 257.231L37.7085 265.191L56.571 251.366L49.2356 249.271L5.64239 244.663L-0.854675 245.501Z" fill="#E8D6AF"/>
<path d="M-3.99876 373.698C38.1274 381.239 47.349 401.348 64.3252 408.26C65.5827 405.537 66.4211 403.652 66.4211 402.814C55.3132 398.415 44.834 401.976 60.3432 356.73C64.1156 345.838 75.6427 330.965 81.3014 314.208C64.1156 345.838 38.9657 365.738 20.9416 365.738C-8.19042 365.738 -32.7116 333.688 -32.7116 285.929C-32.7116 281.53 -32.502 277.131 -32.0829 272.732C-38.9991 300.173 -37.3224 333.27 -36.6937 346.885C-35.6458 366.366 -36.0649 382.914 -47.592 445.965C-46.3345 448.688 -41.5141 451.621 -35.017 453.925C-32.502 406.585 -34.1787 368.251 -3.99876 373.698Z" fill="#E8D6AF"/>
<path d="M24.2949 257.65C26.6003 276.922 3.54619 377.468 8.3666 407.423L18.4266 422.086L25.5524 406.794C20.3128 356.102 33.307 280.902 28.9057 259.117L24.2949 257.65Z" fill="#E8D6AF"/>
<path d="M45.2532 390.036C42.9478 391.503 21.5703 377.259 24.0853 376.421C27.2291 375.583 60.9719 379.353 45.2532 390.036Z" fill="#F7F0D2"/>
<path d="M-0.0164795 243.825L4.80393 236.284C21.1514 247.177 34.1455 251.366 52.3792 241.102L55.7326 250.319L38.7563 259.326L30.5826 253.461L23.0376 261.63L-0.0164795 243.825Z" fill="#F7F0D2"/>
<path d="M27.2294 257.86C29.7444 276.922 8.15733 376.63 13.3969 406.375L23.6665 421.038L30.5827 405.956C24.5048 355.683 36.451 281.111 31.6306 259.536L27.2294 257.86Z" fill="#5B5149"/>
<path d="M17.1696 433.606L22.4091 461.676L23.457 459.79L20.7325 428.16L17.1696 433.606Z" fill="#473C35"/>
<path d="M17.5887 480.319L-5.88452 542.113L24.9241 478.643L17.5887 480.319Z" fill="#473C35"/>
<path d="M155.703 453.297L167.021 437.586L160.943 458.115L155.703 453.297Z" fill="#473C35"/>
<path d="M29.9541 268.124L22.4091 257.441L28.0678 248.434L34.9841 248.643L36.8703 258.698L29.9541 268.124Z" fill="#5B5149"/>
<path d="M84.6547 297.031C82.7685 298.497 79.2056 322.167 79.2056 322.167L86.9601 314.836C81.511 312.113 86.541 295.564 84.6547 297.031Z" fill="#E8D6AF"/>
<path d="M134.117 334.526C135.164 325.938 145.853 293.26 179.806 302.896L184.207 320.701C184.207 320.701 167.859 348.561 145.015 343.743L146.482 336.412L134.117 334.526Z" fill="#FFFAE3"/>
<path d="M167.859 325.519C156.332 325.519 146.901 319.445 144.805 311.694C137.679 319.863 134.536 330.337 134.117 334.736L146.482 336.621L145.015 343.953C167.859 348.771 184.207 320.911 184.207 320.911C180.015 323.634 174.147 325.519 167.859 325.519Z" fill="#F9EED4"/>
<path d="M156.332 329.918C198.458 346.047 216.063 305.829 252.95 295.355L252.531 290.956C224.866 295.983 161.572 295.774 150.674 309.809C145.434 317.14 148.997 327.195 156.332 329.918Z" fill="#FFDEB3"/>
<path d="M248.968 293.47C217.74 307.714 197.411 339.554 159.057 324.891C153.189 322.586 151.512 314.207 154.027 307.295C152.77 308.133 151.722 308.971 151.093 310.018C145.644 317.14 146.272 329.499 153.608 332.222C195.734 348.351 215.854 306.248 252.95 295.564L252.741 290.956C251.483 291.166 250.226 293.26 248.968 293.47Z" fill="#F9AD8F"/>
<path d="M10.8821 402.186C8.15751 412.45 -13.8487 407.632 -12.172 411.403C-10.2858 415.173 6.06168 407.213 12.9779 408.679L10.8821 402.186Z" fill="#E8D6AF"/>
<path opacity="0.4" d="M28.0676 288.443C51.3313 289.49 68.9363 271.685 79.625 256.812C72.7088 254.718 64.1159 252.623 54.6847 250.947L55.7326 250.319L52.3792 241.102C52.1697 241.311 51.9601 241.311 51.5409 241.521C49.8643 240.892 48.1876 240.055 46.7205 239.636L47.5588 217.851L15.0735 217.432L10.4627 235.865C8.15726 236.284 6.48061 236.703 5.64228 236.913C5.4327 236.703 5.22311 236.703 5.01353 236.494L0.19313 244.035L1.86978 245.291L-0.0164661 245.501C-4.62729 245.501 -8.60935 245.71 -12.1723 246.129C-12.5914 246.129 -13.0106 246.339 -13.4298 246.339C-13.8489 246.339 -14.4777 246.548 -14.8968 246.548C-15.1064 246.548 -15.5256 246.548 -15.7352 246.548C-11.9627 266.448 -0.0164623 286.976 28.0676 288.443Z" fill="#AF5652"/>
<path d="M76.691 178.679C74.176 169.672 54.8943 185.382 54.2656 191.038C53.8464 194.809 59.5052 206.33 66.4214 201.512C69.5651 199.417 78.5772 185.382 76.691 178.679Z" fill="#FFDEB3"/>
<path d="M72.9181 182.031C71.0318 175.119 56.1514 187.268 55.7323 191.457C55.5227 194.39 59.7143 203.188 64.9539 199.417C67.2593 197.951 74.1755 187.058 72.9181 182.031Z" fill="#F9AD8F"/>
<path d="M-1.90263 167.787C3.33694 156.057 15.0736 178.889 14.6544 184.545C14.4448 187.896 9.20526 197.742 4.59444 194.181C1.66028 192.086 -6.51345 178.261 -1.90263 167.787Z" fill="#FFDEB3"/>
<path d="M1.66005 172.605C5.22295 164.645 13.3967 180.355 12.9775 184.126C12.7679 186.43 9.20502 193.133 6.06128 190.829C4.17503 189.153 -1.48369 179.517 1.66005 172.605Z" fill="#F9AD8F"/>
<path d="M71.032 97.1948C63.487 111.439 39.8042 94.4717 18.4267 109.135C-5.8849 125.892 5.64216 184.754 5.64216 184.754L18.8459 191.667C18.8459 191.667 49.6546 225.811 62.4391 190.619C73.9662 159.408 90.7328 130.082 71.032 97.1948Z" fill="#774636"/>
<path d="M71.8702 98.6614C71.8702 99.0803 71.8702 99.4993 71.8702 99.9182C71.8702 121.284 71.8702 141.813 29.7441 129.454C20.9416 126.94 12.1391 135.738 5.22289 131.13C-0.435846 154.381 5.43249 184.754 5.43249 184.754L18.6362 191.667C18.6362 191.667 49.4449 225.811 62.2294 190.619C73.7565 159.827 90.1039 130.92 71.8702 98.6614Z" fill="#603226"/>
<path d="M7.52829 165.902C5.85163 179.308 4.59412 210.938 6.0612 213.871C7.52828 216.803 20.3128 232.304 28.0674 234.189C35.6124 236.075 54.894 225.392 57.8282 219.945C60.5527 214.499 68.0977 180.984 68.5169 169.463C69.1456 151.658 63.4869 132.386 59.5048 126.521C55.5228 120.446 27.6482 117.514 23.4566 122.96C19.0553 128.406 9.20495 152.495 7.52829 165.902Z" fill="#FFDEB3"/>
<path d="M60.1337 209.891C64.1158 213.871 68.7266 208.424 67.6787 197.741C66.6308 187.058 71.8704 164.435 75.8524 151.657L66.002 140.136C67.8883 166.32 57.1996 206.958 60.1337 209.891Z" fill="#603226"/>
<path d="M6.06174 203.607C1.45093 206.539 -1.69281 200.046 1.66051 189.991C5.22342 179.727 5.22342 156.685 4.38509 143.069L16.5409 134.271C8.36715 159.408 9.41507 201.512 6.06174 203.607Z" fill="#603226"/>
<path d="M22.8281 117.723C20.3131 119.399 32.2593 127.778 39.3851 129.244C54.4751 132.596 66.6309 125.683 62.2296 122.331C57.6188 118.98 29.9539 112.696 22.8281 117.723Z" fill="#774636"/>
<path d="M15.0736 161.084C13.6065 159.617 13.8161 155.428 16.3311 154.381C18.8461 153.333 34.1456 152.076 34.7744 153.124C35.1935 154.171 35.1935 161.293 33.3073 162.55C31.4211 163.597 17.379 163.388 15.0736 161.084Z" fill="#774636"/>
<path d="M59.9243 167.787C61.8106 166.949 62.8585 162.759 60.9723 161.084C59.086 159.408 45.4631 153.752 44.6248 154.59C43.7865 155.428 41.6906 162.34 42.9481 164.016C44.4152 165.483 57.1998 169.253 59.9243 167.787Z" fill="#774636"/>
<path d="M18.6363 199.627L49.0258 202.978C49.0258 202.978 42.1096 217.222 31.4208 215.547C19.0555 213.452 18.6363 199.627 18.6363 199.627Z" fill="#4C342D"/>
<path d="M43.7863 209.472C46.3013 206.539 47.7684 203.606 47.7684 203.606L19.8939 200.464C19.8939 200.464 20.1034 203.606 21.5705 206.958L43.7863 209.472Z" fill="#FFFBE9"/>
<path d="M49.8642 202.978C49.8642 202.559 49.4451 202.14 49.0259 202.14C48.6067 202.14 48.1876 202.559 48.1876 202.978C48.1876 203.397 48.6067 203.816 49.0259 203.816C49.4451 203.607 49.8642 203.397 49.8642 202.978Z" fill="#4C342D"/>
<path d="M19.265 199.417C19.265 198.998 18.8459 198.579 18.4267 198.579C18.0075 198.579 17.5884 198.998 17.5884 199.417C17.5884 199.836 18.0075 200.255 18.4267 200.255C18.8459 200.046 19.265 199.836 19.265 199.417Z" fill="#4C342D"/>
<path d="M35.6126 218.689C35.6126 218.06 33.3072 218.06 30.5826 217.851C28.0676 217.641 26.391 217.222 26.1814 218.06C26.1814 218.689 27.8581 220.364 30.373 220.574C33.0976 220.783 35.6126 219.526 35.6126 218.689Z" fill="#F9AD8F"/>
<path d="M26.6008 193.342C26.6008 193.342 32.4691 196.275 33.9362 196.484C35.4033 196.694 42.5291 194.39 42.5291 194.39L40.8524 166.53L35.8224 165.483L26.6008 193.342Z" fill="#F9AD8F"/>
<path d="M28.2772 192.923C28.2772 192.923 33.5168 194.599 34.5647 194.809C35.8222 195.018 40.8522 193.971 40.8522 193.971L41.6905 164.854L35.6126 163.388L28.2772 192.923Z" fill="#FFDEB3"/>
<path d="M53.0079 176.166C53.4271 173.443 52.3792 170.929 50.7025 170.719C49.0258 170.51 47.3492 172.395 46.7204 175.328C46.3013 178.051 47.3492 180.565 49.0258 180.774C50.9121 180.984 52.5887 178.889 53.0079 176.166Z" fill="#604840"/>
<path d="M26.3907 173.442C26.6003 170.719 25.3428 168.206 23.6661 167.996C21.9895 167.787 20.3128 170.091 20.1032 172.814C19.8937 175.537 21.1511 178.051 22.8278 178.26C24.5045 178.47 26.1811 176.166 26.3907 173.442Z" fill="#604840"/>
<path d="M489.15 19.6902C375.765 24.7175 365.705 9.84499 323.998 8.16922C259.866 5.65555 223.818 27.0217 223.818 27.0217L236.183 146.002C264.058 127.987 322.112 124.845 361.933 131.967C420.197 142.65 499.209 130.291 499.209 130.291C499.209 130.291 481.814 61.5845 489.15 19.6902Z" fill="#14CC60"/>
<path d="M404.688 123.588C320.016 106.621 256.513 60.3279 252.74 15.7104C233.878 20.9472 223.818 26.8125 223.818 26.8125L236.183 145.792C264.058 127.778 322.112 124.636 361.933 131.758C420.197 142.441 499.209 130.082 499.209 130.082C499.209 130.082 499 129.244 498.581 127.778C470.497 131.548 438.221 130.501 404.688 123.588Z" fill="#09C657"/>
<path d="M228.201 19.3864L223.196 19.8804L271.88 512.695L276.885 512.201L228.201 19.3864Z" fill="#6B5E56"/>
<path d="M-126.186 804.79H489.569C489.569 804.79 434.868 714.927 416.215 701.311C397.562 687.696 382.891 630.719 377.651 622.131C372.412 613.543 330.286 514.253 330.286 514.253C330.286 514.253 307.651 501.894 300.944 487.231C294.238 472.359 255.674 495.82 255.674 503.151C255.674 510.483 203.698 610.401 203.698 610.401C203.698 610.401 174.356 633.861 159.685 638.679C145.015 643.707 56.9898 637.422 58.4569 666.958L54.894 678.898L-64.9874 776.512L-126.186 804.79Z" fill="#7C6A59"/>
<path d="M-49.4781 804.791H76.4811L75.2236 791.384L94.7148 768.971L97.0202 705.501L72.9182 746.139L-4.62743 785.31L-49.4781 804.791Z" fill="#6B5949"/>
<path d="M58.4574 666.749L96.3918 690.629L158.848 688.953L101.841 704.663L80.0444 744.463L80.6731 706.967L54.8945 678.689L58.4574 666.749Z" fill="#6B5949"/>
<path d="M329.447 561.803L366.963 698.588L358.579 753.051L488.102 802.486C479.509 788.452 433.191 713.67 416.215 701.311C397.562 687.696 382.891 630.719 377.651 622.131C372.831 614.171 336.573 528.916 330.914 515.929L329.447 561.803Z" fill="#8C7A69"/>
<path d="M118.817 664.654C180.644 661.093 221.722 641.612 221.722 641.612L294.447 617.313L299.268 549.654L273.908 513.415L297.172 483.042C285.225 478.015 255.884 496.658 255.884 502.942C255.884 510.273 203.907 610.191 203.907 610.191C203.907 610.191 174.566 633.652 159.895 638.47C148.997 642.24 96.601 639.727 71.8702 650.619C78.5768 659.208 91.9901 666.33 118.817 664.654Z" fill="#8C7A69"/>
<path d="M15.9116 781.958L80.0439 744.463L92.1997 705.71L55.7323 675.965L54.894 678.688L-64.9874 776.302L-126.186 804.79H-94.7481C-44.6578 794.107 15.9116 781.958 15.9116 781.958Z" fill="#8C7A69"/>
<path d="M330.705 738.388L342.861 694.189L316.244 648.106L263.01 660.255L250.854 697.332L330.705 738.388Z" fill="#8C7A69"/>
<path d="M155.703 638.679L225.285 651.248L264.058 636.794H225.914L155.703 638.679Z" fill="#7C6A59"/>
<path d="M201.812 706.967L212.081 722.049L257.98 745.72L276.842 767.505L305.974 775.883L338.04 789.29L348.939 804.372H482.652L346.424 759.126L348.939 730.638L336.783 754.098L259.237 727.495L233.878 707.596L238.698 674.29L223.608 704.035L201.812 706.967Z" fill="#6B5949"/>
<path d="M81.3015 805L111.691 778.397L163.667 772.323L123.428 763.525L152.14 720.373L146.691 702.778L188.398 706.967L216.273 748.233L330.705 805H81.3015Z" fill="#8C7A69"/>
<path d="M267.202 646.43L316.873 630.091L336.154 655.647L323.998 621.084L314.358 545.465L310.166 615.009L301.573 628.415L267.202 646.43Z" fill="#6B5949"/>
<path d="M226.543 29.745L219.417 21.3661L222.142 0L230.525 19.2714L226.543 29.745Z" fill="#6B5E56"/>
<path d="M250.016 288.233C249.387 286.976 247.291 286.767 244.986 288.233C242.471 289.49 240.166 292.423 238.07 293.26C236.812 293.679 242.471 296.612 244.776 295.146C247.291 293.679 250.645 289.49 250.016 288.233Z" fill="#FFDEB3"/>
<path d="M251.693 291.166C250.854 288.233 249.387 286.557 248.13 286.976C246.872 287.395 247.291 288.652 248.13 291.585C248.968 294.517 249.806 297.45 250.854 297.031C252.112 296.821 252.531 294.098 251.693 291.166Z" fill="#FFDEB3"/>
<path d="M257.77 288.861C257.77 287.814 256.932 286.976 255.046 287.186C253.159 287.395 251.692 288.233 251.902 289.071C251.902 290.118 253.579 290.747 255.465 290.537C257.142 290.537 257.98 289.909 257.77 288.861Z" fill="#FFDEB3"/>
<path d="M258.399 292.423C258.399 291.375 257.561 290.537 255.884 290.747C254.208 290.956 252.95 291.794 252.95 292.632C252.95 293.68 254.417 294.308 256.094 294.098C257.771 294.098 258.399 293.47 258.399 292.423Z" fill="#FFDEB3"/>
<path d="M257.561 296.612C257.351 295.774 256.722 294.727 255.465 294.936C254.207 295.146 253.369 295.984 253.369 297.031C253.579 297.869 254.627 298.497 255.884 298.497C257.351 298.288 257.77 297.659 257.561 296.612Z" fill="#FFDEB3"/>
<path d="M13.1874 365.528C4.38488 363.433 -10.7051 347.933 -8.39967 343.743C-5.88468 339.554 -0.0163584 359.872 13.3969 361.339L13.1874 365.528Z" fill="#E8D6AF"/>
</g>
</svg>
