<svg width="476" height="610" viewBox="0 0 476 610" fill="none" xmlns="http://www.w3.org/2000/svg">
<g clip-path="url(#clip0)">
<path opacity="0.5" d="M208.619 134.413C213.943 82.4376 178.191 55.4026 143.58 42.4563C206.527 46.264 225.924 90.8146 223.072 142.219C220.599 187.912 196.067 206.57 167.922 256.832H167.542C148.905 256.261 136.924 255.88 111.06 258.355C106.116 252.263 99.0797 243.124 91.2826 232.653C135.783 227.132 198.73 228.845 208.619 134.413Z" fill="#FFF4D2"/>
<path d="M135.593 335.652C135.403 333.558 140.347 333.939 146.623 333.177C152.898 332.416 158.223 331.083 158.604 333.177C158.794 335.272 153.849 340.031 147.574 340.793C141.108 341.554 135.783 337.747 135.593 335.652Z" fill="#89796E"/>
<path d="M335.083 144.123C363.798 139.173 382.626 149.073 390.232 166.017C394.987 176.298 388.521 192.672 383.576 193.243L323.102 182.962C340.027 162.59 335.083 144.123 335.083 144.123Z" fill="#845542"/>
<path d="M373.688 187.531C378.442 186.96 388.711 174.585 383.957 164.304C380.344 156.308 377.681 150.787 368.933 146.408C379.963 150.406 388.141 157.831 392.324 167.16C397.079 177.441 388.711 192.862 383.957 193.433L373.688 187.531Z" fill="#663C2D"/>
<path d="M351.057 241.982C373.117 225.228 404.495 208.855 401.833 193.433C399.171 178.012 364.94 164.494 364.94 164.494L351.057 241.982Z" fill="#845542"/>
<path d="M341.929 166.589C361.897 177.821 372.357 165.066 382.626 171.729C394.797 179.535 402.404 190.958 402.594 193.814C403.545 209.426 373.117 225.228 350.867 241.982L341.929 166.589Z" fill="#663C2D"/>
<path d="M317.777 264.638L239.046 267.113L166.59 251.882L166.02 274.348L235.052 291.102L303.894 304.81L317.777 264.638Z" fill="#5B5149"/>
<path d="M236.193 287.484L184.657 255.69L176.289 253.215L174.007 272.063L236.193 287.484Z" fill="#4F443D"/>
<path d="M232.77 283.105L289.061 287.865L318.538 269.207L303.895 304.81L235.052 291.102L166.02 274.348L166.21 266.923L232.77 283.105Z" fill="#4F443D"/>
<path d="M128.936 40.9332C205.766 37.887 228.967 85.8646 225.924 141.458C223.261 187.531 198.349 206.38 169.633 256.832H169.253C180.853 218.945 219.078 184.485 221.55 142.029C224.593 89.1011 202.343 43.5986 129.317 46.4545C56.2907 49.3103 43.5492 95.1935 46.4017 134.794C49.0642 172.491 97.9383 231.701 111.631 258.546C93.3742 235.699 44.8804 175.346 41.8376 134.032C38.7949 92.1473 52.1069 43.9794 128.936 40.9332Z" fill="#FFDD88"/>
<path d="M139.206 195.718L140.157 195.908L137.304 262.734L135.402 262.925L139.206 195.718Z" fill="#FFDD88"/>
<path d="M109.729 191.339H110.49L125.514 254.738L123.802 255.499L109.729 191.339Z" fill="#FFDD88"/>
<path d="M167.731 186.96L168.682 187.341L156.511 251.882H154.8L167.731 186.96Z" fill="#FFDD88"/>
<path d="M176.67 252.263L165.83 324.229C164.879 330.321 159.935 334.891 153.849 335.652L138.255 337.366C133.311 337.937 128.556 334.891 127.035 330.131L99.0796 246.742L176.67 252.263Z" fill="#493E37"/>
<path d="M165.45 274.157C165.45 265.59 164.689 257.974 163.548 251.12L176.67 252.072L165.64 324.419C164.689 330.321 160.125 334.7 154.229 335.272L152.898 335.462C160.125 323.848 165.45 298.146 165.45 274.157Z" fill="#5B5149"/>
<path d="M119.998 248.074C119.618 252.644 119.428 257.594 119.428 262.734C119.428 294.148 127.225 325.181 137.304 337.366C132.93 337.747 128.746 335.081 127.225 330.893L98.8893 246.551L119.998 248.074Z" fill="#5B5149"/>
<path d="M177.811 271.111L181.424 249.217L94.8958 244.267L103.263 271.682L177.811 271.111Z" fill="#AA9383"/>
<path d="M122.661 264.828C148.334 264.828 169.633 257.974 173.247 248.836L181.424 249.407L177.811 271.111L103.454 271.682L100.791 263.115C107.257 264.067 114.674 264.828 122.661 264.828Z" fill="#89796E"/>
<path d="M174.578 291.482L176.289 275.109L104.024 274.348L112.391 301.954L174.578 291.482Z" fill="#AA9383"/>
<path d="M130.458 291.483C154.99 289.008 170.584 285.2 171.154 279.488C171.345 277.775 170.774 276.252 169.823 275.109H176.099L174.197 291.483L112.011 301.954L108.778 291.292C115.434 292.054 122.851 292.244 130.458 291.483Z" fill="#89796E"/>
<path d="M172.296 318.898L174.958 294.91L115.815 305.19L121.52 322.706L172.296 318.898Z" fill="#AA9383"/>
<path d="M133.12 316.233C152.328 313.948 168.873 307.475 170.204 301.573C170.584 299.479 169.253 297.765 166.401 296.623L174.958 295.1L172.296 319.089L121.52 322.896L119.618 316.994C123.612 316.994 128.176 316.804 133.12 316.233Z" fill="#89796E"/>
<path d="M455.271 589.248L476 610C476 610 453.37 604.479 451.848 599.719C450.517 594.959 455.271 589.248 455.271 589.248Z" fill="#C1A89F"/>
<path d="M139.776 608.096H110.3C110.3 608.096 130.268 595.911 134.642 598.386C139.016 600.861 139.776 608.096 139.776 608.096Z" fill="#C1A89F"/>
<path d="M354.86 263.686L355.051 226.37L330.138 241.982L323.292 266.161L354.86 263.686Z" fill="#F9CCA7"/>
<path d="M148.904 446.648L156.321 439.223L276.129 419.042L275.939 418.471L340.027 432.94L335.463 497.481L331.089 577.825L333.561 582.204L452.038 594.388L454.701 602.765L314.924 608.096L306.367 602.004L277.46 485.677L177.43 469.685L173.246 473.302L138.445 603.527L131.979 597.815L148.904 446.648Z" fill="#51463F"/>
<path d="M282.025 430.465C280.313 430.655 247.794 436.557 236.574 425.325L274.608 418.28L282.025 430.465Z" fill="#443A32"/>
<path d="M323.102 552.313C319.108 526.801 318.538 467.781 307.698 447.409C323.672 440.936 340.217 432.94 340.217 432.94L335.463 497.481L331.089 577.825L333.561 582.203L452.038 594.388L454.701 602.765L321.77 607.906C326.144 599.529 326.905 577.444 323.102 552.313Z" fill="#443A32"/>
<path d="M310.74 605.05L306.366 601.813L303.704 591.342C306.176 596.863 308.458 601.623 310.74 605.05Z" fill="#443A32"/>
<path d="M166.02 460.737C168.112 461.117 278.031 483.393 289.441 477.871C282.976 486.629 284.117 491.389 283.926 511.951L277.461 485.677L177.43 469.685L173.246 473.302L138.445 603.527L133.5 599.148C148.144 554.978 171.154 478.823 166.02 460.737Z" fill="#443A32"/>
<path d="M289.441 478.062L277.27 485.677L259.014 464.735C263.578 467.591 270.805 477.491 289.441 478.062Z" fill="#443A32"/>
<path d="M335.273 453.692C296.478 448.742 273.277 431.417 269.473 419.042C267.572 412.759 286.018 355.833 288.681 313.187C290.583 281.392 296.478 268.446 316.826 264.067C337.175 259.688 373.688 265.971 376.16 288.436C379.963 323.658 351.057 369.541 348.775 375.062C339.267 397.909 340.788 428.18 335.273 453.692Z" fill="#EFDFD5"/>
<path d="M347.063 269.207L329.758 273.205L328.046 270.54L324.053 272.825L323.672 267.684L320.439 269.207L320.82 263.496L324.053 261.973L349.345 265.019L347.063 269.207Z" fill="#DBBEAD"/>
<path d="M324.243 268.446L325.764 269.969C325.764 269.969 303.704 330.893 301.612 357.737L298.76 365.543L294.956 352.978C294.956 352.978 303.134 311.473 324.243 268.446Z" fill="#443A32"/>
<path d="M322.912 271.873L329.948 268.446L327.286 261.592L322.151 264.067L322.912 271.873Z" fill="#5B5149"/>
<path opacity="0.4" d="M269.474 419.042C268.713 416.567 270.995 406.857 274.228 393.149L339.647 420.946C339.267 424.753 338.886 428.561 338.506 432.559L340.217 432.94L335.843 491.579C320.249 488.533 288.871 472.921 283.166 431.988C283.166 431.988 255.401 433.321 239.617 424.944L269.474 419.042C269.474 419.232 269.474 419.042 269.474 419.042Z" fill="#6D4A4A"/>
<path d="M338.506 485.677C312.833 487.772 287.92 446.077 286.018 419.423C284.117 392.578 294.196 369.541 296.478 362.116C303.324 340.412 332.23 265.971 353.72 266.542C361.707 266.732 383.006 277.204 379.012 318.137C377.111 336.795 351.628 370.303 348.205 390.484C345.542 407.238 341.168 438.461 338.506 485.677Z" fill="#5B5149"/>
<path d="M350.106 265.209C356.382 261.401 364.94 270.35 364.94 270.35C338.886 275.871 313.593 331.083 297.239 368.208L296.478 363.258C296.288 363.258 318.538 283.867 350.106 265.209Z" fill="#77685E"/>
<path d="M339.456 326.133C346.493 308.617 360.375 283.296 370.074 287.294C374.638 295.29 380.914 300.431 379.202 318.137C377.301 336.795 351.818 370.303 348.395 390.484C345.542 407.048 341.358 438.271 338.506 485.487C328.617 486.248 318.918 480.537 310.55 471.779C329.187 459.023 319.298 376.014 339.456 326.133Z" fill="#4F443D"/>
<path d="M235.623 425.515C247.413 432.369 295.147 431.607 298.38 400.955C301.422 370.493 297.429 362.116 296.858 356.595C295.147 339.079 306.937 268.255 314.354 264.638C314.354 264.638 289.632 266.542 286.589 279.488C283.546 292.625 275.369 394.292 266.24 410.855C259.965 422.659 231.439 423.04 235.623 425.515Z" fill="#5B5149"/>
<path d="M306.937 264.067H315.305C307.127 273.205 295.527 338.318 298.57 365.162L296.288 362.497C288.871 328.418 299.14 274.538 306.937 264.067Z" fill="#77685E"/>
<path d="M148.904 316.804C155.56 316.423 170.013 320.802 177.05 321.944L175.719 326.704C166.59 326.514 154.229 329.369 151.377 328.037C150.616 327.466 146.622 316.994 148.904 316.804Z" fill="#FFDEB3"/>
<path d="M153.469 328.037C150.236 328.037 142.058 330.131 141.678 328.798C141.107 326.704 147.573 325.752 151.187 324.991C156.131 324.229 153.469 328.037 153.469 328.037Z" fill="#FFDEB3"/>
<path d="M150.806 319.85C147.763 319.66 139.776 320.041 139.396 318.518C138.825 316.233 147.763 316.233 150.806 316.614C155.75 317.375 150.806 319.85 150.806 319.85Z" fill="#FFDEB3"/>
<path d="M154.039 317.756C158.223 314.329 148.904 313.187 149.665 310.902C150.806 307.665 161.456 315.662 164.308 319.089C167.161 322.135 154.039 317.756 154.039 317.756Z" fill="#FFDEB3"/>
<path d="M151.187 323.848C148.144 324.039 139.206 325.181 138.635 324.039C137.875 321.944 146.813 321.183 150.045 320.802C154.99 320.041 151.187 323.848 151.187 323.848Z" fill="#FFDEB3"/>
<path d="M185.227 332.797L172.296 331.273L173.247 316.804L184.467 316.233L185.227 332.797Z" fill="#EFDFD5"/>
<path d="M174.007 327.846C177.05 327.846 179.332 323.087 179.332 317.375C179.332 317.185 179.332 316.804 179.332 316.614L184.467 316.233L185.227 332.797L172.296 331.273L172.486 327.275C173.056 327.656 173.437 327.846 174.007 327.846Z" fill="#D8BBAB"/>
<path d="M357.523 264.638L356.572 259.117H324.053L329.568 271.111L357.523 264.638Z" fill="#EFDFD5"/>
<path d="M319.679 268.446L330.519 261.021L324.813 257.022L320.439 261.401L319.679 268.446Z" fill="#EFDFD5"/>
<path d="M295.527 383.82C295.717 382.297 296.668 380.964 297.619 381.155C298.57 381.345 299.14 382.678 298.95 384.391C298.76 385.914 297.809 387.247 296.858 387.057C295.907 386.866 295.337 385.534 295.527 383.82Z" fill="#77685E"/>
<path d="M291.914 403.62C292.104 402.097 293.055 400.765 294.005 400.955C294.956 401.145 295.527 402.478 295.337 404.192C295.146 405.715 294.196 407.047 293.245 406.857C292.294 406.667 291.723 405.334 291.914 403.62Z" fill="#77685E"/>
<path d="M282.785 437.7L276.7 432.179L273.277 434.654L280.884 441.888L282.785 437.7Z" fill="#77685E"/>
<path d="M172.295 463.402C172.295 463.402 166.4 456.548 165.259 456.929C164.118 457.5 167.541 465.877 167.541 465.877L172.295 463.402Z" fill="#443A32"/>
<path d="M333.181 426.276L309.79 418.09C309.79 418.09 306.367 426.086 310.17 427.99C313.974 429.894 328.427 437.129 330.328 434.653C332.42 432.178 333.181 426.276 333.181 426.276Z" fill="#77685E"/>
<path opacity="0.4" d="M317.017 299.669C304.275 295.29 301.613 279.488 306.367 264.828C306.557 264.448 306.747 264.257 306.937 264.067H315.305C315.115 264.257 315.115 264.448 314.925 264.638C315.495 264.448 316.066 264.257 316.636 264.257C317.777 264.067 318.918 263.876 320.249 263.686L320.44 261.592L325.004 257.213L325.955 257.784L329.378 245.409C336.034 240.84 343.07 235.318 348.775 230.749L355.431 226.561L355.241 259.307H356.953L358.094 264.828L357.333 265.019C361.707 266.542 365.32 270.35 365.32 270.35C365.13 270.35 364.94 270.54 364.56 270.54C366.651 271.873 368.553 273.777 370.455 276.061C372.737 278.536 374.448 281.202 375.589 284.438C375.97 285.2 376.16 285.961 376.54 286.913C359.045 269.207 331.089 304.619 317.017 299.669Z" fill="#AF5652"/>
<path d="M366.841 282.344L273.087 307.285L181.424 311.473L183.706 335.462L275.749 334.891L352.769 332.225C379.393 329.941 385.478 293.767 366.841 282.344Z" fill="#5B5149"/>
<path d="M272.897 329.941L349.916 327.466C370.835 325.371 379.012 302.525 372.356 287.294C383.767 301.763 376.35 330.322 352.959 332.606L275.939 335.272L183.896 335.843L181.804 316.423L234.482 330.322L272.897 329.941Z" fill="#4F443D"/>
<path d="M274.228 324.991C274.228 324.991 278.982 332.987 279.172 333.558L274.038 333.939L274.228 324.991Z" fill="#4F443D"/>
<path d="M275.369 307.094L276.89 314.9L268.713 307.665L275.369 307.094Z" fill="#4F443D"/>
<path d="M352.389 235.318C349.726 248.265 331.28 259.878 304.465 251.501C304.465 251.501 303.705 223.895 314.544 194.956C322.912 172.11 347.444 158.402 362.278 167.541C389.282 183.723 358.664 205.428 352.389 235.318Z" fill="#FFDEB3"/>
<path d="M378.442 180.106C394.036 202.762 352.959 232.653 352.959 232.653L339.457 230.749C343.07 210.949 362.848 157.45 378.442 180.106Z" fill="#663C2D"/>
<path d="M350.296 220.468C355.241 214.566 367.602 216.28 367.031 222.182C366.461 228.084 355.051 236.461 350.296 237.222C345.542 237.793 336.224 237.222 350.296 220.468Z" fill="#FFDEB3"/>
<path d="M351.438 223.895C354.29 220.659 361.136 221.611 360.756 224.847C360.376 228.274 354.1 232.843 351.438 233.224C348.775 233.605 343.641 233.415 351.438 223.895Z" fill="#F9AD8F"/>
<path d="M349.536 228.464C351.247 226.37 355.431 226.941 355.241 229.036C355.051 231.13 351.247 233.986 349.536 234.176C347.824 234.366 344.782 234.176 349.536 228.464Z" fill="#FFDEB3"/>
<path d="M330.518 232.463L332.04 232.843C329.187 236.651 317.587 240.459 307.698 233.224H307.888C316.636 238.555 326.715 235.699 330.518 232.463Z" fill="#E58F70"/>
<path d="M331.85 232.463C332.801 232.843 333.752 233.034 334.512 233.224C333.752 233.605 332.42 233.795 331.279 233.224C329.948 232.653 329.187 231.701 328.997 230.749C329.568 231.511 330.709 232.082 331.85 232.463Z" fill="#E58F70"/>
<path d="M315.305 239.697C315.305 239.126 316.636 239.507 318.348 239.507C320.059 239.507 321.391 239.317 321.391 239.697C321.391 240.268 320.059 241.22 318.348 241.22C316.826 241.22 315.305 240.268 315.305 239.697Z" fill="#F9AD8F"/>
<path d="M314.734 202.001C315.875 197.622 319.679 198.002 318.538 202.762C318.538 204.095 317.397 208.093 315.115 207.522C313.213 206.951 314.354 203.333 314.734 202.001Z" fill="#4C3F36"/>
<path d="M329.948 204.285C331.279 199.335 336.414 199.906 334.893 205.237C334.322 206.951 333.561 211.33 330.899 210.568C328.807 209.997 329.568 205.808 329.948 204.285Z" fill="#4C3F36"/>
<path d="M343.07 199.526C345.352 198.764 346.493 194.195 344.591 193.243C342.689 192.291 331.279 187.722 329.568 188.864C327.856 190.006 326.905 195.718 327.666 196.289C328.617 196.86 341.548 200.097 343.07 199.526Z" fill="#845542"/>
<path d="M312.452 195.337C311.311 194.385 311.501 190.006 312.832 189.435C314.164 188.864 323.672 186.008 324.623 187.722C325.574 189.245 324.243 195.337 323.292 195.718C322.531 196.099 313.403 196.099 312.452 195.337Z" fill="#845542"/>
<path d="M383.387 170.016C388.141 175.156 406.397 191.72 400.502 196.479C394.417 201.429 369.124 164.685 348.585 163.923C348.585 163.923 370.645 156.117 383.387 170.016Z" fill="#845542"/>
<path d="M384.907 181.248C376.16 182.01 356.762 204.285 352.198 201.429C347.634 198.383 361.136 172.681 374.068 173.062C387.19 173.252 384.907 181.248 384.907 181.248Z" fill="#845542"/>
<path d="M234.862 287.865L235.813 276.252L227.446 286.152L234.862 287.865Z" fill="#4F443D"/>
<path d="M107.447 277.013C107.447 276.442 121.33 276.061 138.635 276.061C155.751 276.061 169.823 276.442 169.823 277.013C169.823 277.584 155.941 277.965 138.635 277.965C121.52 277.965 107.447 277.584 107.447 277.013Z" fill="#D3BBAB"/>
<path d="M117.716 307.094C117.716 306.523 130.268 304.048 145.481 301.573C160.885 299.098 173.246 297.385 173.246 297.956C173.246 298.527 160.695 301.002 145.481 303.477C130.077 306.142 117.716 307.665 117.716 307.094Z" fill="#D3BBAB"/>
<path d="M100.411 247.884C100.411 247.313 117.146 247.694 137.874 248.646C158.603 249.597 175.338 250.93 175.338 251.501C175.338 252.072 158.603 251.692 137.874 250.74C117.146 249.597 100.411 248.455 100.411 247.884Z" fill="#D3BBAB"/>
<path d="M128.937 40.9333C164.879 39.6005 189.031 49.3103 204.245 65.6836C200.061 63.7797 195.497 62.2566 190.933 61.1143C176.48 50.8334 156.321 45.3122 129.317 46.2641C56.2909 49.1199 43.5494 95.0032 46.402 134.604C47.543 149.263 55.5302 167.16 65.7995 185.247C65.6093 188.102 65.4192 190.958 65.4192 194.004C53.058 173.443 43.1691 151.929 41.8379 133.842C38.7951 92.1474 52.1071 43.9795 128.937 40.9333Z" fill="#FFF19C"/>
<path d="M317.587 225.228C313.783 225.228 303.894 223.895 303.514 222.753C303.324 221.42 323.102 196.86 324.243 197.051C325.384 197.241 320.82 225.228 317.587 225.228Z" fill="#FFDEB3"/>
<path d="M324.243 197.051C324.433 197.051 324.433 197.431 324.433 197.812C319.488 202.953 305.035 221.039 305.226 222.182C305.416 223.324 313.973 224.466 318.347 224.657C318.157 225.037 317.777 225.228 317.587 225.228C313.783 225.228 303.894 223.895 303.514 222.753C303.324 221.42 323.102 196.86 324.243 197.051Z" fill="#F9AD8F"/>
<path d="M229.157 194.956C242.089 201.429 254.07 205.428 253.119 207.331C252.358 208.664 228.587 196.289 228.587 196.289L229.157 194.956Z" fill="#FFDD88"/>
<path d="M50.7758 201.429C38.6048 209.235 28.9061 217.231 27.765 215.518C27.0043 214.185 49.8249 200.097 49.8249 200.097L50.7758 201.429Z" fill="#FFDD88"/>
<path d="M232.39 71.7759C245.131 64.9219 255.401 57.6872 256.352 59.5911C257.112 60.9238 233.151 73.1086 233.151 73.1086L232.39 71.7759Z" fill="#FFDD88"/>
<path d="M40.5067 66.2547C30.6177 55.593 20.919 47.5967 22.4404 46.264C23.5814 45.3121 41.6477 65.3027 41.6477 65.3027L40.5067 66.2547Z" fill="#FFDD88"/>
<path d="M248.935 143.742C263.198 145.646 275.749 145.836 275.559 147.931C275.369 149.454 248.745 145.265 248.745 145.265L248.935 143.742Z" fill="#FFDD88"/>
<path d="M26.814 143.171C12.361 143.933 -0.000183105 146.027 -0.000183105 143.933C-0.000183105 142.409 26.814 141.648 26.814 141.648V143.171Z" fill="#FFDD88"/>
<path d="M135.402 26.8446C135.593 12.3752 134.261 0 136.353 0C137.875 0 136.924 27.035 136.924 27.035L135.402 26.8446Z" fill="#FFDD88"/>
<path d="M127.415 201.429C133.31 201.429 137.875 199.145 139.586 198.193C144.15 200.858 148.905 201.62 153.659 200.287C159.554 198.764 165.259 194.195 169.063 187.912L167.351 186.96C163.928 192.862 158.603 197.05 153.279 198.383C148.905 199.526 144.531 198.764 140.347 196.099L139.776 195.718L139.206 196.099C138.635 196.479 123.422 206.379 111.441 190.197L109.729 191.339C115.244 199.335 121.71 201.429 127.415 201.429Z" fill="#FFDD88"/>
<path d="M321.2 396.766C321.2 396.766 329.378 408.951 330.899 403.43C332.42 397.909 331.469 345.933 331.469 345.933L321.2 396.766Z" fill="#5B5149"/>
<path d="M110.49 80.5337C116.385 67.9681 118.287 49.8813 97.368 55.7833C59.3337 66.445 52.8678 110.996 57.4319 117.088C64.2781 126.227 105.926 90.053 110.49 80.5337Z" fill="#FFFAEB"/>
</g>
<defs>
<clipPath id="clip0">
<rect width="476" height="610" fill="white" transform="matrix(-1 0 0 1 476 0)"/>
</clipPath>
</defs>
</svg>
