<svg width="338" height="96" viewBox="0 0 338 96" fill="none" xmlns="http://www.w3.org/2000/svg">
<path d="M65.736 60.24C66.8667 60.24 67.8053 60.0053 68.552 59.536C69.304 59.0613 69.8667 58.4133 70.24 57.592C70.6133 56.7707 70.8 55.8427 70.8 54.808C70.8 54.7493 70.7973 54.6533 70.792 54.52C70.7867 54.3813 70.7787 54.2507 70.768 54.128H66.88V55.136H69.536C69.4773 56.3627 69.1467 57.3333 68.544 58.048C67.9413 58.7627 67.0213 59.1173 65.784 59.112C64.8827 59.1067 64.128 58.8987 63.52 58.488C62.9173 58.0773 62.4667 57.5067 62.168 56.776C61.8693 56.0453 61.7227 55.2 61.728 54.24C61.7387 53.28 61.8933 52.4347 62.192 51.704C62.4907 50.9733 62.9387 50.4027 63.536 49.992C64.1333 49.5813 64.8827 49.3787 65.784 49.384C66.632 49.384 67.3413 49.5947 67.912 50.016C68.488 50.4373 68.904 51 69.16 51.704L70.344 51.416C70.04 50.4507 69.5013 49.6827 68.728 49.112C67.96 48.536 66.9627 48.248 65.736 48.248C64.6373 48.248 63.696 48.496 62.912 48.992C62.128 49.488 61.5253 50.184 61.104 51.08C60.688 51.976 60.48 53.0293 60.48 54.24C60.48 55.456 60.6907 56.5147 61.112 57.416C61.5387 58.312 62.144 59.008 62.928 59.504C63.712 59.9947 64.648 60.24 65.736 60.24ZM76.0573 60.24C76.8946 60.24 77.6439 60.0347 78.3053 59.624C78.9719 59.2133 79.4759 58.6293 79.8173 57.872L78.7213 57.448C78.1719 58.5573 77.2679 59.112 76.0093 59.112C75.1453 59.112 74.4679 58.8427 73.9773 58.304C73.4919 57.7653 73.2253 57 73.1773 56.008H79.9853C80.0279 54.4827 79.6946 53.288 78.9853 52.424C78.2813 51.5547 77.2893 51.12 76.0093 51.12C75.1773 51.12 74.4546 51.3067 73.8413 51.68C73.2333 52.0533 72.7613 52.584 72.4253 53.272C72.0893 53.96 71.9213 54.776 71.9213 55.72C71.9213 56.632 72.0893 57.4267 72.4253 58.104C72.7666 58.7813 73.2466 59.3067 73.8653 59.68C74.4893 60.0533 75.2199 60.24 76.0573 60.24ZM76.0413 52.2C77.6679 52.2 78.5719 53.1413 78.7533 55.024H73.2013C73.2919 54.112 73.5799 53.4133 74.0653 52.928C74.5506 52.4427 75.2093 52.2 76.0413 52.2ZM86.4646 60V58.968C85.846 59.0693 85.326 59.0853 84.9046 59.016C84.4886 58.9467 84.1846 58.7333 83.9926 58.376C83.8913 58.1893 83.8353 57.976 83.8246 57.736C83.8193 57.4907 83.8166 57.1867 83.8166 56.824V52.368H86.4646V51.36H83.8166V48.96H82.6486V51.36H80.8006V52.368H82.6486V56.872C82.6486 57.2933 82.654 57.6693 82.6646 58C82.6806 58.3307 82.766 58.6533 82.9206 58.968C83.1126 59.352 83.3926 59.6347 83.7606 59.816C84.134 59.9973 84.5553 60.0987 85.0246 60.12C85.4993 60.1413 85.9793 60.1013 86.4646 60ZM93.842 60.24C95.3513 60.24 96.4473 59.6827 97.13 58.568V60H98.178V54.632C98.178 54.312 98.162 53.9973 98.13 53.688C98.098 53.3787 98.0287 53.0987 97.922 52.848C97.6927 52.288 97.3007 51.8613 96.746 51.568C96.1967 51.2693 95.5273 51.12 94.738 51.12C93.7887 51.12 93.0153 51.3333 92.418 51.76C91.8207 52.1867 91.4207 52.7867 91.218 53.56L92.362 53.896C92.5273 53.32 92.8127 52.8987 93.218 52.632C93.6287 52.3653 94.13 52.232 94.722 52.232C95.5433 52.232 96.13 52.424 96.482 52.808C96.834 53.1867 97.0153 53.7653 97.026 54.544C96.642 54.5973 96.218 54.6533 95.754 54.712C95.2953 54.7707 94.834 54.8373 94.37 54.912C93.906 54.9867 93.4793 55.072 93.09 55.168C92.4447 55.3387 91.9167 55.624 91.506 56.024C91.0953 56.4187 90.89 56.9707 90.89 57.68C90.89 58.1387 90.9993 58.5627 91.218 58.952C91.4367 59.3413 91.7647 59.6533 92.202 59.888C92.6447 60.1227 93.1913 60.24 93.842 60.24ZM93.978 59.224C93.514 59.224 93.1407 59.1493 92.858 59C92.5807 58.8453 92.378 58.6507 92.25 58.416C92.1273 58.176 92.066 57.9307 92.066 57.68C92.066 57.2107 92.2233 56.8587 92.538 56.624C92.8527 56.3893 93.194 56.2187 93.562 56.112C94.0367 55.984 94.5887 55.88 95.218 55.8C95.8473 55.72 96.4447 55.6453 97.01 55.576C97.01 55.7733 97.002 56 96.986 56.256C96.9753 56.5067 96.946 56.7387 96.898 56.952C96.786 57.6027 96.4767 58.144 95.97 58.576C95.4687 59.008 94.8047 59.224 93.978 59.224ZM103.845 60.24C104.703 60.24 105.439 60.04 106.053 59.64C106.671 59.2347 107.143 58.648 107.469 57.88L106.285 57.528C105.847 58.584 105.034 59.112 103.845 59.112C102.917 59.112 102.218 58.8 101.749 58.176C101.279 57.5467 101.039 56.7147 101.029 55.68C101.039 54.672 101.271 53.848 101.725 53.208C102.183 52.568 102.89 52.248 103.845 52.248C104.41 52.248 104.911 52.392 105.349 52.68C105.791 52.9627 106.114 53.3627 106.317 53.88L107.469 53.512C107.229 52.7707 106.783 52.1867 106.133 51.76C105.487 51.3333 104.727 51.12 103.853 51.12C102.994 51.12 102.263 51.312 101.661 51.696C101.058 52.0747 100.597 52.608 100.277 53.296C99.9566 53.9787 99.7913 54.7733 99.7806 55.68C99.7913 56.5653 99.9513 57.352 100.261 58.04C100.575 58.728 101.034 59.2667 101.637 59.656C102.239 60.0453 102.975 60.24 103.845 60.24ZM112.47 60.24C113.328 60.24 114.064 60.04 114.678 59.64C115.296 59.2347 115.768 58.648 116.094 57.88L114.91 57.528C114.472 58.584 113.659 59.112 112.47 59.112C111.542 59.112 110.843 58.8 110.374 58.176C109.904 57.5467 109.664 56.7147 109.654 55.68C109.664 54.672 109.896 53.848 110.35 53.208C110.808 52.568 111.515 52.248 112.47 52.248C113.035 52.248 113.536 52.392 113.974 52.68C114.416 52.9627 114.739 53.3627 114.942 53.88L116.094 53.512C115.854 52.7707 115.408 52.1867 114.758 51.76C114.112 51.3333 113.352 51.12 112.478 51.12C111.619 51.12 110.888 51.312 110.286 51.696C109.683 52.0747 109.222 52.608 108.902 53.296C108.582 53.9787 108.416 54.7733 108.406 55.68C108.416 56.5653 108.576 57.352 108.886 58.04C109.2 58.728 109.659 59.2667 110.262 59.656C110.864 60.0453 111.6 60.24 112.47 60.24ZM121.167 60.24C122.004 60.24 122.753 60.0347 123.415 59.624C124.081 59.2133 124.585 58.6293 124.927 57.872L123.831 57.448C123.281 58.5573 122.377 59.112 121.119 59.112C120.255 59.112 119.577 58.8427 119.087 58.304C118.601 57.7653 118.335 57 118.287 56.008H125.095C125.137 54.4827 124.804 53.288 124.095 52.424C123.391 51.5547 122.399 51.12 121.119 51.12C120.287 51.12 119.564 51.3067 118.951 51.68C118.343 52.0533 117.871 52.584 117.535 53.272C117.199 53.96 117.031 54.776 117.031 55.72C117.031 56.632 117.199 57.4267 117.535 58.104C117.876 58.7813 118.356 59.3067 118.975 59.68C119.599 60.0533 120.329 60.24 121.167 60.24ZM121.151 52.2C122.777 52.2 123.681 53.1413 123.863 55.024H118.311C118.401 54.112 118.689 53.4133 119.175 52.928C119.66 52.4427 120.319 52.2 121.151 52.2ZM130.094 60.232C131.155 60.232 131.987 60 132.59 59.536C133.198 59.0667 133.502 58.424 133.502 57.608C133.502 57.16 133.406 56.784 133.214 56.48C133.027 56.176 132.705 55.912 132.246 55.688C131.793 55.464 131.169 55.2507 130.374 55.048C129.697 54.8773 129.174 54.72 128.806 54.576C128.443 54.432 128.193 54.28 128.054 54.12C127.915 53.9547 127.846 53.7573 127.846 53.528C127.846 53.1173 128.038 52.7893 128.422 52.544C128.806 52.2987 129.305 52.1813 129.918 52.192C130.569 52.2027 131.105 52.3573 131.526 52.656C131.947 52.9493 132.201 53.3493 132.286 53.856L133.486 53.64C133.427 53.1387 133.241 52.6987 132.926 52.32C132.611 51.9413 132.195 51.648 131.678 51.44C131.166 51.2267 130.585 51.12 129.934 51.12C129.283 51.12 128.71 51.224 128.214 51.432C127.723 51.6347 127.339 51.9227 127.062 52.296C126.79 52.664 126.654 53.0933 126.654 53.584C126.654 53.984 126.745 54.3253 126.926 54.608C127.113 54.8853 127.43 55.1333 127.878 55.352C128.326 55.5653 128.939 55.7787 129.718 55.992C130.449 56.1893 130.995 56.36 131.358 56.504C131.726 56.648 131.971 56.8053 132.094 56.976C132.217 57.1413 132.278 57.3573 132.278 57.624C132.278 58.0933 132.089 58.4667 131.71 58.744C131.331 59.0213 130.814 59.16 130.158 59.16C129.486 59.16 128.921 59.016 128.462 58.728C128.003 58.4347 127.713 58.0427 127.59 57.552L126.39 57.752C126.539 58.5307 126.939 59.1387 127.59 59.576C128.246 60.0133 129.081 60.232 130.094 60.232ZM138.5 60.232C139.562 60.232 140.394 60 140.996 59.536C141.604 59.0667 141.908 58.424 141.908 57.608C141.908 57.16 141.812 56.784 141.62 56.48C141.434 56.176 141.111 55.912 140.652 55.688C140.199 55.464 139.575 55.2507 138.78 55.048C138.103 54.8773 137.58 54.72 137.212 54.576C136.85 54.432 136.599 54.28 136.46 54.12C136.322 53.9547 136.252 53.7573 136.252 53.528C136.252 53.1173 136.444 52.7893 136.828 52.544C137.212 52.2987 137.711 52.1813 138.324 52.192C138.975 52.2027 139.511 52.3573 139.932 52.656C140.354 52.9493 140.607 53.3493 140.692 53.856L141.892 53.64C141.834 53.1387 141.647 52.6987 141.332 52.32C141.018 51.9413 140.602 51.648 140.084 51.44C139.572 51.2267 138.991 51.12 138.34 51.12C137.69 51.12 137.116 51.224 136.62 51.432C136.13 51.6347 135.746 51.9227 135.468 52.296C135.196 52.664 135.06 53.0933 135.06 53.584C135.06 53.984 135.151 54.3253 135.332 54.608C135.519 54.8853 135.836 55.1333 136.284 55.352C136.732 55.5653 137.346 55.7787 138.124 55.992C138.855 56.1893 139.402 56.36 139.764 56.504C140.132 56.648 140.378 56.8053 140.5 56.976C140.623 57.1413 140.684 57.3573 140.684 57.624C140.684 58.0933 140.495 58.4667 140.116 58.744C139.738 59.0213 139.22 59.16 138.564 59.16C137.892 59.16 137.327 59.016 136.868 58.728C136.41 58.4347 136.119 58.0427 135.996 57.552L134.796 57.752C134.946 58.5307 135.346 59.1387 135.996 59.576C136.652 60.0133 137.487 60.232 138.5 60.232ZM151.59 60V58.968C150.971 59.0693 150.451 59.0853 150.03 59.016C149.614 58.9467 149.31 58.7333 149.118 58.376C149.016 58.1893 148.96 57.976 148.95 57.736C148.944 57.4907 148.942 57.1867 148.942 56.824V52.368H151.59V51.36H148.942V48.96H147.774V51.36H145.926V52.368H147.774V56.872C147.774 57.2933 147.779 57.6693 147.79 58C147.806 58.3307 147.891 58.6533 148.046 58.968C148.238 59.352 148.518 59.6347 148.886 59.816C149.259 59.9973 149.68 60.0987 150.15 60.12C150.624 60.1413 151.104 60.1013 151.59 60ZM156.587 60.24C157.441 60.24 158.171 60.048 158.779 59.664C159.393 59.28 159.862 58.7467 160.187 58.064C160.518 57.376 160.683 56.5787 160.683 55.672C160.683 54.7813 160.521 53.9947 160.195 53.312C159.875 52.624 159.409 52.088 158.795 51.704C158.187 51.3147 157.451 51.12 156.587 51.12C155.745 51.12 155.017 51.312 154.403 51.696C153.795 52.0747 153.326 52.6053 152.995 53.288C152.665 53.9707 152.499 54.7653 152.499 55.672C152.499 56.5627 152.659 57.352 152.979 58.04C153.305 58.728 153.771 59.2667 154.379 59.656C154.993 60.0453 155.729 60.24 156.587 60.24ZM156.587 59.112C155.654 59.112 154.947 58.8 154.467 58.176C153.987 57.5467 153.747 56.712 153.747 55.672C153.747 54.664 153.979 53.8427 154.443 53.208C154.907 52.568 155.622 52.248 156.587 52.248C157.542 52.248 158.254 52.56 158.723 53.184C159.198 53.8027 159.435 54.632 159.435 55.672C159.435 56.6907 159.201 57.52 158.731 58.16C158.262 58.7947 157.547 59.112 156.587 59.112ZM169.259 60.24C170.113 60.24 170.843 60.048 171.451 59.664C172.065 59.28 172.534 58.7467 172.859 58.064C173.19 57.376 173.355 56.5787 173.355 55.672C173.355 54.7813 173.193 53.9947 172.867 53.312C172.547 52.624 172.081 52.088 171.467 51.704C170.859 51.3147 170.123 51.12 169.259 51.12C168.417 51.12 167.689 51.312 167.075 51.696C166.467 52.0747 165.998 52.6053 165.667 53.288C165.337 53.9707 165.171 54.7653 165.171 55.672C165.171 56.5627 165.331 57.352 165.651 58.04C165.977 58.728 166.443 59.2667 167.051 59.656C167.665 60.0453 168.401 60.24 169.259 60.24ZM169.259 59.112C168.326 59.112 167.619 58.8 167.139 58.176C166.659 57.5467 166.419 56.712 166.419 55.672C166.419 54.664 166.651 53.8427 167.115 53.208C167.579 52.568 168.294 52.248 169.259 52.248C170.214 52.248 170.926 52.56 171.395 53.184C171.87 53.8027 172.107 54.632 172.107 55.672C172.107 56.6907 171.873 57.52 171.403 58.16C170.934 58.7947 170.219 59.112 169.259 59.112ZM178.424 60.216C179.043 60.216 179.6 60.0987 180.096 59.864C180.597 59.624 181.008 59.2693 181.328 58.8V60H182.384V51.36H181.208V55.968C181.208 56.944 180.989 57.7093 180.552 58.264C180.115 58.8187 179.48 59.096 178.648 59.096C178.045 59.096 177.56 58.952 177.192 58.664C176.824 58.3707 176.557 57.9733 176.392 57.472C176.227 56.9707 176.144 56.4027 176.144 55.768V51.36H174.96V56.112C174.96 56.5973 175.019 57.0827 175.136 57.568C175.259 58.0533 175.453 58.496 175.72 58.896C175.987 59.296 176.341 59.616 176.784 59.856C177.232 60.096 177.779 60.216 178.424 60.216ZM184.62 60H185.796V55.688C185.796 55.1707 185.855 54.656 185.972 54.144C186.095 53.6267 186.372 53.1973 186.804 52.856C187.119 52.6 187.46 52.4533 187.828 52.416C188.201 52.3733 188.548 52.3893 188.868 52.464V51.36C188.489 51.264 188.06 51.2613 187.58 51.352C187.1 51.4373 186.689 51.6293 186.348 51.928C186.092 52.12 185.868 52.3867 185.676 52.728V51.36H184.62V60ZM196.061 60.24C197.57 60.24 198.666 59.6827 199.349 58.568V60H200.397V54.632C200.397 54.312 200.381 53.9973 200.349 53.688C200.317 53.3787 200.247 53.0987 200.141 52.848C199.911 52.288 199.519 51.8613 198.965 51.568C198.415 51.2693 197.746 51.12 196.957 51.12C196.007 51.12 195.234 51.3333 194.637 51.76C194.039 52.1867 193.639 52.7867 193.437 53.56L194.581 53.896C194.746 53.32 195.031 52.8987 195.437 52.632C195.847 52.3653 196.349 52.232 196.941 52.232C197.762 52.232 198.349 52.424 198.701 52.808C199.053 53.1867 199.234 53.7653 199.245 54.544C198.861 54.5973 198.437 54.6533 197.973 54.712C197.514 54.7707 197.053 54.8373 196.589 54.912C196.125 54.9867 195.698 55.072 195.309 55.168C194.663 55.3387 194.135 55.624 193.725 56.024C193.314 56.4187 193.109 56.9707 193.109 57.68C193.109 58.1387 193.218 58.5627 193.437 58.952C193.655 59.3413 193.983 59.6533 194.421 59.888C194.863 60.1227 195.41 60.24 196.061 60.24ZM196.197 59.224C195.733 59.224 195.359 59.1493 195.077 59C194.799 58.8453 194.597 58.6507 194.469 58.416C194.346 58.176 194.285 57.9307 194.285 57.68C194.285 57.2107 194.442 56.8587 194.757 56.624C195.071 56.3893 195.413 56.2187 195.781 56.112C196.255 55.984 196.807 55.88 197.437 55.8C198.066 55.72 198.663 55.6453 199.229 55.576C199.229 55.7733 199.221 56 199.205 56.256C199.194 56.5067 199.165 56.7387 199.117 56.952C199.005 57.6027 198.695 58.144 198.189 58.576C197.687 59.008 197.023 59.224 196.197 59.224ZM207.183 60V58.968C206.565 59.0693 206.045 59.0853 205.623 59.016C205.207 58.9467 204.903 58.7333 204.711 58.376C204.61 58.1893 204.554 57.976 204.543 57.736C204.538 57.4907 204.535 57.1867 204.535 56.824V52.368H207.183V51.36H204.535V48.96H203.367V51.36H201.519V52.368H203.367V56.872C203.367 57.2933 203.373 57.6693 203.383 58C203.399 58.3307 203.485 58.6533 203.639 58.968C203.831 59.352 204.111 59.6347 204.479 59.816C204.853 59.9973 205.274 60.0987 205.743 60.12C206.218 60.1413 206.698 60.1013 207.183 60ZM208.878 60H210.062V55.392C210.062 54.416 210.28 53.6507 210.718 53.096C211.155 52.5413 211.79 52.264 212.622 52.264C213.224 52.264 213.71 52.4107 214.078 52.704C214.446 52.992 214.712 53.3867 214.878 53.888C215.043 54.3893 215.126 54.9573 215.126 55.592V60H216.31V55.248C216.31 54.7627 216.248 54.2773 216.126 53.792C216.008 53.3067 215.816 52.864 215.55 52.464C215.283 52.064 214.928 51.744 214.486 51.504C214.043 51.264 213.496 51.144 212.846 51.144C212.227 51.144 211.667 51.264 211.166 51.504C210.67 51.7387 210.262 52.0907 209.942 52.56V48.48H208.878V60ZM218.546 49.72H219.722V48.4H218.546V49.72ZM218.546 60H219.722V51.36H218.546V60ZM225.344 60.232C226.405 60.232 227.237 60 227.84 59.536C228.448 59.0667 228.752 58.424 228.752 57.608C228.752 57.16 228.656 56.784 228.464 56.48C228.277 56.176 227.955 55.912 227.496 55.688C227.043 55.464 226.419 55.2507 225.624 55.048C224.947 54.8773 224.424 54.72 224.056 54.576C223.693 54.432 223.443 54.28 223.304 54.12C223.165 53.9547 223.096 53.7573 223.096 53.528C223.096 53.1173 223.288 52.7893 223.672 52.544C224.056 52.2987 224.555 52.1813 225.168 52.192C225.819 52.2027 226.355 52.3573 226.776 52.656C227.197 52.9493 227.451 53.3493 227.536 53.856L228.736 53.64C228.677 53.1387 228.491 52.6987 228.176 52.32C227.861 51.9413 227.445 51.648 226.928 51.44C226.416 51.2267 225.835 51.12 225.184 51.12C224.533 51.12 223.96 51.224 223.464 51.432C222.973 51.6347 222.589 51.9227 222.312 52.296C222.04 52.664 221.904 53.0933 221.904 53.584C221.904 53.984 221.995 54.3253 222.176 54.608C222.363 54.8853 222.68 55.1333 223.128 55.352C223.576 55.5653 224.189 55.7787 224.968 55.992C225.699 56.1893 226.245 56.36 226.608 56.504C226.976 56.648 227.221 56.8053 227.344 56.976C227.467 57.1413 227.528 57.3573 227.528 57.624C227.528 58.0933 227.339 58.4667 226.96 58.744C226.581 59.0213 226.064 59.16 225.408 59.16C224.736 59.16 224.171 59.016 223.712 58.728C223.253 58.4347 222.963 58.0427 222.84 57.552L221.64 57.752C221.789 58.5307 222.189 59.1387 222.84 59.576C223.496 60.0133 224.331 60.232 225.344 60.232ZM230.518 60H231.702V55.392C231.702 54.416 231.921 53.6507 232.358 53.096C232.796 52.5413 233.43 52.264 234.262 52.264C234.865 52.264 235.35 52.4107 235.718 52.704C236.086 52.992 236.353 53.3867 236.518 53.888C236.684 54.3893 236.766 54.9573 236.766 55.592V60H237.95V55.248C237.95 54.7627 237.889 54.2773 237.766 53.792C237.649 53.3067 237.457 52.864 237.19 52.464C236.924 52.064 236.569 51.744 236.126 51.504C235.684 51.264 235.137 51.144 234.486 51.144C233.868 51.144 233.308 51.264 232.806 51.504C232.31 51.7387 231.902 52.0907 231.582 52.56V48.48H230.518V60ZM242.498 60.24C244.008 60.24 245.104 59.6827 245.786 58.568V60H246.834V54.632C246.834 54.312 246.818 53.9973 246.786 53.688C246.754 53.3787 246.685 53.0987 246.578 52.848C246.349 52.288 245.957 51.8613 245.402 51.568C244.853 51.2693 244.184 51.12 243.394 51.12C242.445 51.12 241.672 51.3333 241.074 51.76C240.477 52.1867 240.077 52.7867 239.874 53.56L241.018 53.896C241.184 53.32 241.469 52.8987 241.874 52.632C242.285 52.3653 242.786 52.232 243.378 52.232C244.2 52.232 244.786 52.424 245.138 52.808C245.49 53.1867 245.672 53.7653 245.682 54.544C245.298 54.5973 244.874 54.6533 244.41 54.712C243.952 54.7707 243.49 54.8373 243.026 54.912C242.562 54.9867 242.136 55.072 241.746 55.168C241.101 55.3387 240.573 55.624 240.162 56.024C239.752 56.4187 239.546 56.9707 239.546 57.68C239.546 58.1387 239.656 58.5627 239.874 58.952C240.093 59.3413 240.421 59.6533 240.858 59.888C241.301 60.1227 241.848 60.24 242.498 60.24ZM242.634 59.224C242.17 59.224 241.797 59.1493 241.514 59C241.237 58.8453 241.034 58.6507 240.906 58.416C240.784 58.176 240.722 57.9307 240.722 57.68C240.722 57.2107 240.88 56.8587 241.194 56.624C241.509 56.3893 241.85 56.2187 242.218 56.112C242.693 55.984 243.245 55.88 243.874 55.8C244.504 55.72 245.101 55.6453 245.666 55.576C245.666 55.7733 245.658 56 245.642 56.256C245.632 56.5067 245.602 56.7387 245.554 56.952C245.442 57.6027 245.133 58.144 244.626 58.576C244.125 59.008 243.461 59.224 242.634 59.224ZM248.909 60H250.101V55.84L254.341 60H256.053L251.477 55.68L255.525 51.36H253.957L250.101 55.52V48.48H248.917L248.909 60ZM261.558 60V58.968C260.94 59.0693 260.42 59.0853 259.998 59.016C259.582 58.9467 259.278 58.7333 259.086 58.376C258.985 58.1893 258.929 57.976 258.918 57.736C258.913 57.4907 258.91 57.1867 258.91 56.824V52.368H261.558V51.36H258.91V48.96H257.742V51.36H255.894V52.368H257.742V56.872C257.742 57.2933 257.748 57.6693 257.758 58C257.774 58.3307 257.86 58.6533 258.014 58.968C258.206 59.352 258.486 59.6347 258.854 59.816C259.228 59.9973 259.649 60.0987 260.118 60.12C260.593 60.1413 261.073 60.1013 261.558 60ZM263.253 60H264.437V55.392C264.437 54.416 264.655 53.6507 265.093 53.096C265.53 52.5413 266.165 52.264 266.997 52.264C267.599 52.264 268.085 52.4107 268.453 52.704C268.821 52.992 269.087 53.3867 269.253 53.888C269.418 54.3893 269.501 54.9573 269.501 55.592V60H270.685V55.248C270.685 54.7627 270.623 54.2773 270.501 53.792C270.383 53.3067 270.191 52.864 269.925 52.464C269.658 52.064 269.303 51.744 268.861 51.504C268.418 51.264 267.871 51.144 267.221 51.144C266.602 51.144 266.042 51.264 265.541 51.504C265.045 51.7387 264.637 52.0907 264.317 52.56V48.48H263.253V60ZM275.233 60.24C276.742 60.24 277.838 59.6827 278.521 58.568V60H279.569V54.632C279.569 54.312 279.553 53.9973 279.521 53.688C279.489 53.3787 279.419 53.0987 279.313 52.848C279.083 52.288 278.691 51.8613 278.137 51.568C277.587 51.2693 276.918 51.12 276.129 51.12C275.179 51.12 274.406 51.3333 273.809 51.76C273.211 52.1867 272.811 52.7867 272.609 53.56L273.753 53.896C273.918 53.32 274.203 52.8987 274.609 52.632C275.019 52.3653 275.521 52.232 276.113 52.232C276.934 52.232 277.521 52.424 277.873 52.808C278.225 53.1867 278.406 53.7653 278.417 54.544C278.033 54.5973 277.609 54.6533 277.145 54.712C276.686 54.7707 276.225 54.8373 275.761 54.912C275.297 54.9867 274.87 55.072 274.481 55.168C273.835 55.3387 273.307 55.624 272.897 56.024C272.486 56.4187 272.281 56.9707 272.281 57.68C272.281 58.1387 272.39 58.5627 272.609 58.952C272.827 59.3413 273.155 59.6533 273.593 59.888C274.035 60.1227 274.582 60.24 275.233 60.24ZM275.369 59.224C274.905 59.224 274.531 59.1493 274.249 59C273.971 58.8453 273.769 58.6507 273.641 58.416C273.518 58.176 273.457 57.9307 273.457 57.68C273.457 57.2107 273.614 56.8587 273.929 56.624C274.243 56.3893 274.585 56.2187 274.953 56.112C275.427 55.984 275.979 55.88 276.609 55.8C277.238 55.72 277.835 55.6453 278.401 55.576C278.401 55.7733 278.393 56 278.377 56.256C278.366 56.5067 278.337 56.7387 278.289 56.952C278.177 57.6027 277.867 58.144 277.361 58.576C276.859 59.008 276.195 59.224 275.369 59.224ZM281.643 60H282.827V54.424C282.827 53.7467 283.011 53.2053 283.379 52.8C283.747 52.3893 284.23 52.184 284.827 52.184C285.425 52.184 285.905 52.384 286.267 52.784C286.635 53.1787 286.819 53.72 286.819 54.408L286.811 60H287.971L287.979 54.424C287.979 53.8853 288.078 53.4533 288.275 53.128C288.478 52.7973 288.734 52.5573 289.043 52.408C289.353 52.2587 289.67 52.184 289.995 52.184C290.566 52.184 291.035 52.376 291.403 52.76C291.777 53.1387 291.963 53.6613 291.963 54.328L291.955 60H293.131L293.139 54.104C293.139 53.192 292.878 52.4693 292.355 51.936C291.838 51.3973 291.142 51.128 290.267 51.128C289.691 51.128 289.174 51.2587 288.715 51.52C288.257 51.776 287.902 52.1307 287.651 52.584C287.417 52.1093 287.078 51.7493 286.635 51.504C286.198 51.2533 285.697 51.128 285.131 51.128C284.619 51.128 284.153 51.232 283.731 51.44C283.31 51.6427 282.966 51.92 282.699 52.272V51.36H281.643V60ZM298.409 63.84H299.593V58.968C299.902 59.3627 300.284 59.6747 300.737 59.904C301.19 60.128 301.71 60.24 302.297 60.24C303.108 60.24 303.798 60.04 304.369 59.64C304.94 59.2347 305.374 58.688 305.673 58C305.977 57.312 306.129 56.536 306.129 55.672C306.129 54.8133 305.977 54.04 305.673 53.352C305.374 52.664 304.942 52.12 304.377 51.72C303.812 51.32 303.134 51.12 302.345 51.12C301.705 51.12 301.142 51.248 300.657 51.504C300.177 51.7547 299.78 52.104 299.465 52.552V51.36H298.409V63.84ZM302.177 59.144C301.564 59.144 301.057 58.9947 300.657 58.696C300.257 58.392 299.958 57.9787 299.761 57.456C299.564 56.9333 299.465 56.3387 299.465 55.672C299.465 54.6533 299.686 53.824 300.129 53.184C300.577 52.5387 301.252 52.216 302.153 52.216C302.772 52.216 303.281 52.368 303.681 52.672C304.086 52.976 304.388 53.3893 304.585 53.912C304.782 54.4347 304.881 55.0213 304.881 55.672C304.881 56.328 304.78 56.9173 304.577 57.44C304.38 57.9627 304.081 58.3787 303.681 58.688C303.281 58.992 302.78 59.144 302.177 59.144ZM307.886 60H309.062V55.688C309.062 55.1707 309.12 54.656 309.238 54.144C309.36 53.6267 309.638 53.1973 310.07 52.856C310.384 52.6 310.726 52.4533 311.094 52.416C311.467 52.3733 311.814 52.3893 312.134 52.464V51.36C311.755 51.264 311.326 51.2613 310.846 51.352C310.366 51.4373 309.955 51.6293 309.614 51.928C309.358 52.12 309.134 52.3867 308.942 52.728V51.36H307.886V60ZM317.103 60.24C317.956 60.24 318.687 60.048 319.295 59.664C319.908 59.28 320.378 58.7467 320.703 58.064C321.034 57.376 321.199 56.5787 321.199 55.672C321.199 54.7813 321.036 53.9947 320.711 53.312C320.391 52.624 319.924 52.088 319.311 51.704C318.703 51.3147 317.967 51.12 317.103 51.12C316.26 51.12 315.532 51.312 314.919 51.696C314.311 52.0747 313.842 52.6053 313.511 53.288C313.18 53.9707 313.015 54.7653 313.015 55.672C313.015 56.5627 313.175 57.352 313.495 58.04C313.82 58.728 314.287 59.2667 314.895 59.656C315.508 60.0453 316.244 60.24 317.103 60.24ZM317.103 59.112C316.17 59.112 315.463 58.8 314.983 58.176C314.503 57.5467 314.263 56.712 314.263 55.672C314.263 54.664 314.495 53.8427 314.959 53.208C315.423 52.568 316.138 52.248 317.103 52.248C318.058 52.248 318.77 52.56 319.239 53.184C319.714 53.8027 319.951 54.632 319.951 55.672C319.951 56.6907 319.716 57.52 319.247 58.16C318.778 58.7947 318.063 59.112 317.103 59.112ZM65.824 88V86.968C65.2053 87.0693 64.6853 87.0853 64.264 87.016C63.848 86.9467 63.544 86.7333 63.352 86.376C63.2507 86.1893 63.1947 85.976 63.184 85.736C63.1787 85.4907 63.176 85.1867 63.176 84.824V80.368H65.824V79.36H63.176V76.96H62.008V79.36H60.16V80.368H62.008V84.872C62.008 85.2933 62.0133 85.6693 62.024 86C62.04 86.3307 62.1253 86.6533 62.28 86.968C62.472 87.352 62.752 87.6347 63.12 87.816C63.4933 87.9973 63.9147 88.0987 64.384 88.12C64.8587 88.1413 65.3387 88.1013 65.824 88ZM67.5263 88H68.7023V83.688C68.7023 83.1707 68.7609 82.656 68.8783 82.144C69.0009 81.6267 69.2783 81.1973 69.7103 80.856C70.0249 80.6 70.3663 80.4533 70.7343 80.416C71.1076 80.3733 71.4543 80.3893 71.7743 80.464V79.36C71.3956 79.264 70.9663 79.2613 70.4863 79.352C70.0063 79.4373 69.5956 79.6293 69.2543 79.928C68.9983 80.12 68.7743 80.3867 68.5823 80.728V79.36H67.5263V88ZM75.4514 88.24C76.9607 88.24 78.0567 87.6827 78.7394 86.568V88H79.7874V82.632C79.7874 82.312 79.7714 81.9973 79.7394 81.688C79.7074 81.3787 79.638 81.0987 79.5314 80.848C79.302 80.288 78.91 79.8613 78.3554 79.568C77.806 79.2693 77.1367 79.12 76.3474 79.12C75.398 79.12 74.6247 79.3333 74.0274 79.76C73.43 80.1867 73.03 80.7867 72.8274 81.56L73.9714 81.896C74.1367 81.32 74.422 80.8987 74.8274 80.632C75.238 80.3653 75.7394 80.232 76.3314 80.232C77.1527 80.232 77.7394 80.424 78.0914 80.808C78.4434 81.1867 78.6247 81.7653 78.6354 82.544C78.2514 82.5973 77.8274 82.6533 77.3634 82.712C76.9047 82.7707 76.4434 82.8373 75.9794 82.912C75.5154 82.9867 75.0887 83.072 74.6994 83.168C74.054 83.3387 73.526 83.624 73.1154 84.024C72.7047 84.4187 72.4994 84.9707 72.4994 85.68C72.4994 86.1387 72.6087 86.5627 72.8274 86.952C73.046 87.3413 73.374 87.6533 73.8114 87.888C74.254 88.1227 74.8007 88.24 75.4514 88.24ZM75.5874 87.224C75.1234 87.224 74.75 87.1493 74.4674 87C74.19 86.8453 73.9874 86.6507 73.8594 86.416C73.7367 86.176 73.6754 85.9307 73.6754 85.68C73.6754 85.2107 73.8327 84.8587 74.1474 84.624C74.462 84.3893 74.8034 84.2187 75.1714 84.112C75.646 83.984 76.198 83.88 76.8274 83.8C77.4567 83.72 78.054 83.6453 78.6194 83.576C78.6194 83.7733 78.6114 84 78.5954 84.256C78.5847 84.5067 78.5554 84.7387 78.5074 84.952C78.3954 85.6027 78.086 86.144 77.5794 86.576C77.078 87.008 76.414 87.224 75.5874 87.224ZM85.222 88.24C85.8513 88.24 86.4033 88.112 86.878 87.856C87.3527 87.5947 87.7447 87.24 88.054 86.792V88H89.11V76.48H87.926V80.376C87.6113 79.9813 87.222 79.6747 86.758 79.456C86.2993 79.232 85.7713 79.12 85.174 79.12C84.3847 79.12 83.7073 79.32 83.142 79.72C82.5767 80.12 82.142 80.664 81.838 81.352C81.5393 82.04 81.39 82.8133 81.39 83.672C81.39 84.536 81.5393 85.312 81.838 86C82.142 86.688 82.5793 87.2347 83.15 87.64C83.726 88.04 84.4167 88.24 85.222 88.24ZM85.342 87.144C84.7447 87.144 84.2433 86.992 83.838 86.688C83.438 86.3787 83.1367 85.9627 82.934 85.44C82.7367 84.9173 82.638 84.328 82.638 83.672C82.638 83.0213 82.7367 82.4347 82.934 81.912C83.1313 81.3893 83.43 80.976 83.83 80.672C84.2353 80.368 84.7473 80.216 85.366 80.216C86.2673 80.216 86.9393 80.5387 87.382 81.184C87.83 81.824 88.054 82.6533 88.054 83.672C88.054 84.3387 87.9553 84.9333 87.758 85.456C87.5607 85.9787 87.262 86.392 86.862 86.696C86.462 86.9947 85.9553 87.144 85.342 87.144ZM95.0104 88.24C95.8477 88.24 96.597 88.0347 97.2584 87.624C97.925 87.2133 98.429 86.6293 98.7704 85.872L97.6744 85.448C97.125 86.5573 96.221 87.112 94.9624 87.112C94.0984 87.112 93.421 86.8427 92.9304 86.304C92.445 85.7653 92.1784 85 92.1304 84.008H98.9384C98.981 82.4827 98.6477 81.288 97.9384 80.424C97.2344 79.5547 96.2424 79.12 94.9624 79.12C94.1304 79.12 93.4077 79.3067 92.7944 79.68C92.1864 80.0533 91.7144 80.584 91.3784 81.272C91.0424 81.96 90.8744 82.776 90.8744 83.72C90.8744 84.632 91.0424 85.4267 91.3784 86.104C91.7197 86.7813 92.1997 87.3067 92.8184 87.68C93.4424 88.0533 94.173 88.24 95.0104 88.24ZM94.9944 80.2C96.621 80.2 97.525 81.1413 97.7064 83.024H92.1544C92.245 82.112 92.533 81.4133 93.0184 80.928C93.5037 80.4427 94.1624 80.2 94.9944 80.2ZM100.714 88H101.89V83.688C101.89 83.1707 101.948 82.656 102.066 82.144C102.188 81.6267 102.466 81.1973 102.898 80.856C103.212 80.6 103.554 80.4533 103.922 80.416C104.295 80.3733 104.642 80.3893 104.962 80.464V79.36C104.583 79.264 104.154 79.2613 103.674 79.352C103.194 79.4373 102.783 79.6293 102.442 79.928C102.186 80.12 101.962 80.3867 101.77 80.728V79.36H100.714V88ZM109.391 88.232C110.452 88.232 111.284 88 111.887 87.536C112.495 87.0667 112.799 86.424 112.799 85.608C112.799 85.16 112.703 84.784 112.511 84.48C112.324 84.176 112.002 83.912 111.543 83.688C111.09 83.464 110.466 83.2507 109.671 83.048C108.994 82.8773 108.471 82.72 108.103 82.576C107.74 82.432 107.49 82.28 107.351 82.12C107.212 81.9547 107.143 81.7573 107.143 81.528C107.143 81.1173 107.335 80.7893 107.719 80.544C108.103 80.2987 108.602 80.1813 109.215 80.192C109.866 80.2027 110.402 80.3573 110.823 80.656C111.244 80.9493 111.498 81.3493 111.583 81.856L112.783 81.64C112.724 81.1387 112.538 80.6987 112.223 80.32C111.908 79.9413 111.492 79.648 110.975 79.44C110.463 79.2267 109.882 79.12 109.231 79.12C108.58 79.12 108.007 79.224 107.511 79.432C107.02 79.6347 106.636 79.9227 106.359 80.296C106.087 80.664 105.951 81.0933 105.951 81.584C105.951 81.984 106.042 82.3253 106.223 82.608C106.41 82.8853 106.727 83.1333 107.175 83.352C107.623 83.5653 108.236 83.7787 109.015 83.992C109.746 84.1893 110.292 84.36 110.655 84.504C111.023 84.648 111.268 84.8053 111.391 84.976C111.514 85.1413 111.575 85.3573 111.575 85.624C111.575 86.0933 111.386 86.4667 111.007 86.744C110.628 87.0213 110.111 87.16 109.455 87.16C108.783 87.16 108.218 87.016 107.759 86.728C107.3 86.4347 107.01 86.0427 106.887 85.552L105.687 85.752C105.836 86.5307 106.236 87.1387 106.887 87.576C107.543 88.0133 108.378 88.232 109.391 88.232ZM121.36 88.24C122.219 88.24 122.955 88.04 123.568 87.64C124.187 87.2347 124.659 86.648 124.984 85.88L123.8 85.528C123.363 86.584 122.55 87.112 121.36 87.112C120.432 87.112 119.734 86.8 119.264 86.176C118.795 85.5467 118.555 84.7147 118.544 83.68C118.555 82.672 118.787 81.848 119.24 81.208C119.699 80.568 120.406 80.248 121.36 80.248C121.926 80.248 122.427 80.392 122.864 80.68C123.307 80.9627 123.63 81.3627 123.832 81.88L124.984 81.512C124.744 80.7707 124.299 80.1867 123.648 79.76C123.003 79.3333 122.243 79.12 121.368 79.12C120.51 79.12 119.779 79.312 119.176 79.696C118.574 80.0747 118.112 80.608 117.792 81.296C117.472 81.9787 117.307 82.7733 117.296 83.68C117.307 84.5653 117.467 85.352 117.776 86.04C118.091 86.728 118.55 87.2667 119.152 87.656C119.755 88.0453 120.491 88.24 121.36 88.24ZM130.009 88.24C130.863 88.24 131.593 88.048 132.201 87.664C132.815 87.28 133.284 86.7467 133.609 86.064C133.94 85.376 134.105 84.5787 134.105 83.672C134.105 82.7813 133.943 81.9947 133.617 81.312C133.297 80.624 132.831 80.088 132.217 79.704C131.609 79.3147 130.873 79.12 130.009 79.12C129.167 79.12 128.439 79.312 127.825 79.696C127.217 80.0747 126.748 80.6053 126.417 81.288C126.087 81.9707 125.921 82.7653 125.921 83.672C125.921 84.5627 126.081 85.352 126.401 86.04C126.727 86.728 127.193 87.2667 127.801 87.656C128.415 88.0453 129.151 88.24 130.009 88.24ZM130.009 87.112C129.076 87.112 128.369 86.8 127.889 86.176C127.409 85.5467 127.169 84.712 127.169 83.672C127.169 82.664 127.401 81.8427 127.865 81.208C128.329 80.568 129.044 80.248 130.009 80.248C130.964 80.248 131.676 80.56 132.145 81.184C132.62 81.8027 132.857 82.632 132.857 83.672C132.857 84.6907 132.623 85.52 132.153 86.16C131.684 86.7947 130.969 87.112 130.009 87.112ZM135.862 88H137.046V82.424C137.046 81.7467 137.23 81.2053 137.598 80.8C137.966 80.3893 138.449 80.184 139.046 80.184C139.643 80.184 140.123 80.384 140.486 80.784C140.854 81.1787 141.038 81.72 141.038 82.408L141.03 88H142.19L142.198 82.424C142.198 81.8853 142.297 81.4533 142.494 81.128C142.697 80.7973 142.953 80.5573 143.262 80.408C143.571 80.2587 143.889 80.184 144.214 80.184C144.785 80.184 145.254 80.376 145.622 80.76C145.995 81.1387 146.182 81.6613 146.182 82.328L146.174 88H147.35L147.358 82.104C147.358 81.192 147.097 80.4693 146.574 79.936C146.057 79.3973 145.361 79.128 144.486 79.128C143.91 79.128 143.393 79.2587 142.934 79.52C142.475 79.776 142.121 80.1307 141.87 80.584C141.635 80.1093 141.297 79.7493 140.854 79.504C140.417 79.2533 139.915 79.128 139.35 79.128C138.838 79.128 138.371 79.232 137.95 79.44C137.529 79.6427 137.185 79.92 136.918 80.272V79.36H135.862V88ZM149.425 88H150.609V82.424C150.609 81.7467 150.793 81.2053 151.161 80.8C151.529 80.3893 152.011 80.184 152.609 80.184C153.206 80.184 153.686 80.384 154.049 80.784C154.417 81.1787 154.601 81.72 154.601 82.408L154.593 88H155.753L155.761 82.424C155.761 81.8853 155.859 81.4533 156.057 81.128C156.259 80.7973 156.515 80.5573 156.825 80.408C157.134 80.2587 157.451 80.184 157.777 80.184C158.347 80.184 158.817 80.376 159.185 80.76C159.558 81.1387 159.745 81.6613 159.745 82.328L159.737 88H160.913L160.921 82.104C160.921 81.192 160.659 80.4693 160.137 79.936C159.619 79.3973 158.923 79.128 158.049 79.128C157.473 79.128 156.955 79.2587 156.497 79.52C156.038 79.776 155.683 80.1307 155.433 80.584C155.198 80.1093 154.859 79.7493 154.417 79.504C153.979 79.2533 153.478 79.128 152.913 79.128C152.401 79.128 151.934 79.232 151.513 79.44C151.091 79.6427 150.747 79.92 150.481 80.272V79.36H149.425V88ZM166.299 88.216C166.918 88.216 167.475 88.0987 167.971 87.864C168.472 87.624 168.883 87.2693 169.203 86.8V88H170.259V79.36H169.083V83.968C169.083 84.944 168.864 85.7093 168.427 86.264C167.99 86.8187 167.355 87.096 166.523 87.096C165.92 87.096 165.435 86.952 165.067 86.664C164.699 86.3707 164.432 85.9733 164.267 85.472C164.102 84.9707 164.019 84.4027 164.019 83.768V79.36H162.835V84.112C162.835 84.5973 162.894 85.0827 163.011 85.568C163.134 86.0533 163.328 86.496 163.595 86.896C163.862 87.296 164.216 87.616 164.659 87.856C165.107 88.096 165.654 88.216 166.299 88.216ZM172.487 88H173.671V83.392C173.671 82.416 173.89 81.6507 174.327 81.096C174.764 80.5413 175.399 80.264 176.231 80.264C176.834 80.264 177.319 80.4107 177.687 80.704C178.055 80.992 178.322 81.3867 178.487 81.888C178.652 82.3893 178.735 82.9573 178.735 83.592V88H179.919V83.248C179.919 82.7627 179.858 82.2773 179.735 81.792C179.618 81.3067 179.426 80.864 179.159 80.464C178.892 80.064 178.538 79.744 178.095 79.504C177.652 79.264 177.106 79.144 176.455 79.144C175.836 79.144 175.276 79.264 174.775 79.504C174.279 79.7387 173.871 80.0907 173.551 80.56V79.36H172.487V88ZM182.155 77.72H183.331V76.4H182.155V77.72ZM182.155 88H183.331V79.36H182.155V88ZM190.433 88V86.968C189.815 87.0693 189.295 87.0853 188.873 87.016C188.457 86.9467 188.153 86.7333 187.961 86.376C187.86 86.1893 187.804 85.976 187.793 85.736C187.788 85.4907 187.785 85.1867 187.785 84.824V80.368H190.433V79.36H187.785V76.96H186.617V79.36H184.769V80.368H186.617V84.872C186.617 85.2933 186.623 85.6693 186.633 86C186.649 86.3307 186.735 86.6533 186.889 86.968C187.081 87.352 187.361 87.6347 187.729 87.816C188.103 87.9973 188.524 88.0987 188.993 88.12C189.468 88.1413 189.948 88.1013 190.433 88ZM193.133 91.84H194.309L198.949 79.36H197.749L195.133 86.464L192.293 79.36H191.045L194.557 87.976L193.133 91.84Z" fill="#666666"/>
<path d="M61.47 24H64.0005V18.7185H67.7175C67.8575 18.7185 68.043 18.7115 68.274 18.6975C68.512 18.6835 68.729 18.6625 68.925 18.6345C70.227 18.4315 71.193 17.889 71.823 17.007C72.46 16.118 72.7785 15.0505 72.7785 13.8045C72.7785 12.5515 72.4635 11.484 71.8335 10.602C71.2105 9.713 70.241 9.167 68.925 8.964C68.729 8.929 68.5155 8.908 68.2845 8.901C68.0535 8.887 67.8645 8.88 67.7175 8.88H61.47V24ZM64.0005 16.356V11.253H67.6125C67.7525 11.253 67.91 11.26 68.085 11.274C68.26 11.288 68.421 11.3125 68.568 11.3475C68.988 11.4525 69.317 11.6415 69.555 11.9145C69.8 12.1805 69.9715 12.4815 70.0695 12.8175C70.1745 13.1535 70.227 13.4825 70.227 13.8045C70.227 14.1265 70.1745 14.4555 70.0695 14.7915C69.9715 15.1275 69.8 15.4285 69.555 15.6945C69.317 15.9605 68.988 16.146 68.568 16.251C68.421 16.293 68.26 16.321 68.085 16.335C67.91 16.349 67.7525 16.356 67.6125 16.356H64.0005ZM73.8821 24H76.4231V18.2355C76.4231 17.5775 76.5421 16.993 76.7801 16.482C77.0251 15.971 77.4066 15.5755 77.9246 15.2955C78.2746 15.0925 78.6666 14.9735 79.1006 14.9385C79.5346 14.8965 79.9231 14.9245 80.2661 15.0225V12.66C79.7551 12.583 79.2301 12.5935 78.6911 12.6915C78.1521 12.7825 77.6726 12.9715 77.2526 13.2585C77.0146 13.4055 76.8011 13.584 76.6121 13.794C76.4231 13.997 76.2586 14.2245 76.1186 14.4765V12.66H73.8821V24ZM86.0732 24.315C87.2072 24.315 88.1977 24.063 89.0447 23.559C89.8917 23.048 90.5497 22.3445 91.0187 21.4485C91.4947 20.5455 91.7327 19.506 91.7327 18.33C91.7327 17.161 91.4982 16.1285 91.0292 15.2325C90.5602 14.3295 89.9022 13.6225 89.0552 13.1115C88.2082 12.6005 87.2142 12.345 86.0732 12.345C84.9602 12.345 83.9802 12.597 83.1332 13.101C82.2862 13.605 81.6247 14.305 81.1487 15.201C80.6727 16.097 80.4347 17.14 80.4347 18.33C80.4347 19.499 80.6657 20.535 81.1277 21.438C81.5967 22.334 82.2547 23.0375 83.1017 23.5485C83.9487 24.0595 84.9392 24.315 86.0732 24.315ZM86.0732 21.942C85.1002 21.942 84.3617 21.6165 83.8577 20.9655C83.3607 20.3075 83.1122 19.429 83.1122 18.33C83.1122 17.259 83.3502 16.391 83.8262 15.726C84.3092 15.054 85.0582 14.718 86.0732 14.718C87.0672 14.718 87.8127 15.047 88.3097 15.705C88.8067 16.356 89.0552 17.231 89.0552 18.33C89.0552 19.394 88.8067 20.262 88.3097 20.934C87.8197 21.606 87.0742 21.942 86.0732 21.942ZM99.8833 24H102.414V11.253H107.307V8.88H94.9903V11.253H99.8833V24ZM106.94 24H109.481V18.2355C109.481 17.5775 109.6 16.993 109.838 16.482C110.083 15.971 110.464 15.5755 110.982 15.2955C111.332 15.0925 111.724 14.9735 112.158 14.9385C112.592 14.8965 112.981 14.9245 113.324 15.0225V12.66C112.813 12.583 112.288 12.5935 111.749 12.6915C111.21 12.7825 110.73 12.9715 110.31 13.2585C110.072 13.4055 109.859 13.584 109.67 13.794C109.481 13.997 109.316 14.2245 109.176 14.4765V12.66H106.94V24ZM117.232 24.315C118.135 24.315 118.901 24.168 119.531 23.874C120.168 23.573 120.728 23.1075 121.211 22.4775V24H123.427V17.0385C123.427 16.5485 123.406 16.097 123.364 15.684C123.322 15.264 123.199 14.8545 122.996 14.4555C122.625 13.7065 122.055 13.1675 121.285 12.8385C120.522 12.5095 119.636 12.345 118.628 12.345C117.298 12.345 116.238 12.6355 115.447 13.2165C114.656 13.7975 114.12 14.5675 113.84 15.5265L116.15 16.251C116.339 15.67 116.672 15.2605 117.148 15.0225C117.624 14.7845 118.117 14.6655 118.628 14.6655C119.398 14.6655 119.965 14.823 120.329 15.138C120.693 15.446 120.9 15.9255 120.949 16.5765C119.955 16.7235 119.031 16.867 118.177 17.007C117.33 17.14 116.609 17.3045 116.014 17.5005C115.118 17.8085 114.463 18.246 114.05 18.813C113.637 19.373 113.431 20.066 113.431 20.892C113.431 21.515 113.574 22.0855 113.861 22.6035C114.155 23.1215 114.586 23.538 115.153 23.853C115.72 24.161 116.413 24.315 117.232 24.315ZM117.736 22.299C117.141 22.299 116.686 22.1625 116.371 21.8895C116.063 21.6165 115.909 21.2735 115.909 20.8605C115.909 20.4895 116.028 20.1885 116.266 19.9575C116.511 19.7265 116.85 19.5305 117.284 19.3695C117.683 19.2365 118.163 19.121 118.723 19.023C119.283 18.918 120.014 18.7955 120.917 18.6555C120.91 18.9215 120.893 19.219 120.865 19.548C120.837 19.87 120.77 20.1605 120.665 20.4195C120.581 20.6785 120.417 20.955 120.172 21.249C119.934 21.543 119.612 21.7915 119.206 21.9945C118.8 22.1975 118.31 22.299 117.736 22.299ZM129.707 24.315C130.379 24.315 130.984 24.2135 131.523 24.0105C132.062 23.8075 132.535 23.524 132.941 23.16V24H135.177V8.88H132.626V13.2165C132.248 12.9365 131.824 12.723 131.355 12.576C130.886 12.422 130.368 12.345 129.801 12.345C128.73 12.345 127.799 12.604 127.008 13.122C126.224 13.64 125.615 14.3505 125.181 15.2535C124.747 16.1565 124.53 17.182 124.53 18.33C124.53 19.464 124.744 20.4825 125.171 21.3855C125.598 22.2885 126.2 23.0025 126.977 23.5275C127.754 24.0525 128.664 24.315 129.707 24.315ZM130.095 22.047C129.437 22.047 128.895 21.8825 128.468 21.5535C128.041 21.2175 127.722 20.7695 127.512 20.2095C127.309 19.6495 127.208 19.023 127.208 18.33C127.208 17.644 127.313 17.021 127.523 16.461C127.74 15.894 128.065 15.446 128.499 15.117C128.94 14.781 129.5 14.613 130.179 14.613C131.145 14.613 131.845 14.956 132.279 15.642C132.72 16.328 132.941 17.224 132.941 18.33C132.941 19.429 132.72 20.325 132.279 21.018C131.845 21.704 131.117 22.047 130.095 22.047ZM142.277 24.315C143.369 24.315 144.366 24.035 145.269 23.475C146.179 22.908 146.851 22.11 147.285 21.081L144.786 20.325C144.282 21.403 143.397 21.942 142.13 21.942C141.269 21.942 140.59 21.6935 140.093 21.1965C139.596 20.6925 139.298 19.9715 139.2 19.0335H147.411C147.509 17.6685 147.359 16.4855 146.96 15.4845C146.561 14.4835 145.948 13.71 145.122 13.164C144.303 12.618 143.306 12.345 142.13 12.345C141.017 12.345 140.037 12.597 139.19 13.101C138.343 13.598 137.681 14.305 137.205 15.222C136.729 16.139 136.491 17.217 136.491 18.456C136.491 19.604 136.733 20.619 137.216 21.501C137.706 22.383 138.385 23.0725 139.253 23.5695C140.121 24.0665 141.129 24.315 142.277 24.315ZM142.235 14.5605C143.019 14.5605 143.621 14.767 144.041 15.18C144.468 15.586 144.737 16.2335 144.849 17.1225H139.263C139.564 15.4145 140.555 14.5605 142.235 14.5605ZM148.754 24H151.295V18.2355C151.295 17.5775 151.414 16.993 151.652 16.482C151.897 15.971 152.279 15.5755 152.797 15.2955C153.147 15.0925 153.539 14.9735 153.973 14.9385C154.407 14.8965 154.795 14.9245 155.138 15.0225V12.66C154.627 12.583 154.102 12.5935 153.563 12.6915C153.024 12.7825 152.545 12.9715 152.125 13.2585C151.887 13.4055 151.673 13.584 151.484 13.794C151.295 13.997 151.131 14.2245 150.991 14.4765V12.66H148.754V24ZM160.11 24.315C161.573 24.315 162.718 23.9895 163.544 23.3385C164.377 22.6875 164.793 21.7915 164.793 20.6505C164.793 19.7685 164.513 19.0755 163.953 18.5715C163.4 18.0675 162.445 17.6405 161.087 17.2905C160.205 17.0665 159.54 16.8775 159.092 16.7235C158.651 16.5695 158.357 16.4155 158.21 16.2615C158.063 16.1075 157.989 15.922 157.989 15.705C157.989 15.327 158.171 15.033 158.535 14.823C158.899 14.606 159.379 14.5115 159.974 14.5395C160.59 14.5745 161.083 14.732 161.454 15.012C161.832 15.292 162.056 15.6735 162.126 16.1565L164.709 15.6945C164.569 14.6725 164.069 13.8605 163.208 13.2585C162.347 12.6495 161.255 12.345 159.932 12.345C158.581 12.345 157.499 12.66 156.687 13.29C155.875 13.92 155.469 14.767 155.469 15.831C155.469 16.678 155.753 17.3465 156.32 17.8365C156.894 18.3265 157.891 18.757 159.312 19.128C160.166 19.352 160.796 19.541 161.202 19.695C161.615 19.842 161.885 19.9925 162.011 20.1465C162.137 20.3005 162.2 20.507 162.2 20.766C162.2 21.186 162.032 21.5185 161.696 21.7635C161.36 22.0015 160.891 22.1205 160.289 22.1205C159.596 22.1205 159.018 21.9595 158.556 21.6375C158.101 21.3155 157.811 20.8745 157.685 20.3145L155.102 20.7135C155.291 21.8545 155.823 22.74 156.698 23.37C157.573 24 158.71 24.315 160.11 24.315ZM175.692 24.315C177.428 24.315 178.877 23.881 180.039 23.013C181.208 22.138 182.027 20.962 182.496 19.485L179.944 18.7815C179.65 19.7615 179.15 20.5315 178.443 21.0915C177.736 21.6515 176.819 21.9315 175.692 21.9315C174.173 21.9315 173.028 21.431 172.258 20.43C171.495 19.422 171.114 18.092 171.114 16.44C171.121 14.788 171.506 13.4615 172.269 12.4605C173.032 11.4525 174.173 10.9485 175.692 10.9485C176.819 10.9485 177.736 11.2285 178.443 11.7885C179.15 12.3485 179.65 13.1185 179.944 14.0985L182.496 13.395C182.027 11.911 181.208 10.735 180.039 9.867C178.877 8.999 177.428 8.565 175.692 8.565C174.187 8.565 172.892 8.8975 171.807 9.5625C170.729 10.2205 169.899 11.141 169.318 12.324C168.744 13.5 168.457 14.872 168.457 16.44C168.457 18.001 168.744 19.373 169.318 20.556C169.899 21.739 170.729 22.663 171.807 23.328C172.892 23.986 174.187 24.315 175.692 24.315ZM188.81 24.315C189.944 24.315 190.934 24.063 191.781 23.559C192.628 23.048 193.286 22.3445 193.755 21.4485C194.231 20.5455 194.469 19.506 194.469 18.33C194.469 17.161 194.235 16.1285 193.766 15.2325C193.297 14.3295 192.639 13.6225 191.792 13.1115C190.945 12.6005 189.951 12.345 188.81 12.345C187.697 12.345 186.717 12.597 185.87 13.101C185.023 13.605 184.361 14.305 183.885 15.201C183.409 16.097 183.171 17.14 183.171 18.33C183.171 19.499 183.402 20.535 183.864 21.438C184.333 22.334 184.991 23.0375 185.838 23.5485C186.685 24.0595 187.676 24.315 188.81 24.315ZM188.81 21.942C187.837 21.942 187.098 21.6165 186.594 20.9655C186.097 20.3075 185.849 19.429 185.849 18.33C185.849 17.259 186.087 16.391 186.563 15.726C187.046 15.054 187.795 14.718 188.81 14.718C189.804 14.718 190.549 15.047 191.046 15.705C191.543 16.356 191.792 17.231 191.792 18.33C191.792 19.394 191.543 20.262 191.046 20.934C190.556 21.606 189.811 21.942 188.81 21.942ZM195.762 24H198.313V17.0175C198.313 16.3105 198.506 15.7365 198.891 15.2955C199.283 14.8545 199.801 14.634 200.445 14.634C201.11 14.634 201.635 14.8545 202.02 15.2955C202.405 15.7365 202.597 16.3525 202.597 17.1435V24H205.117V17.0175C205.117 16.2685 205.32 15.684 205.726 15.264C206.139 14.844 206.65 14.634 207.259 14.634C207.91 14.634 208.428 14.8545 208.813 15.2955C209.205 15.7295 209.401 16.335 209.401 17.112V24H211.932V16.4715C211.932 15.2395 211.596 14.249 210.924 13.5C210.259 12.751 209.3 12.3765 208.047 12.3765C207.312 12.3765 206.64 12.5375 206.031 12.8595C205.422 13.1815 204.942 13.6225 204.592 14.1825C204.291 13.6295 203.864 13.192 203.311 12.87C202.758 12.541 202.083 12.3765 201.285 12.3765C200.606 12.3765 199.979 12.513 199.405 12.786C198.838 13.052 198.369 13.4195 197.998 13.8885V12.66H195.762V24ZM213.649 24H216.201V17.0175C216.201 16.3105 216.393 15.7365 216.778 15.2955C217.17 14.8545 217.688 14.634 218.332 14.634C218.997 14.634 219.522 14.8545 219.907 15.2955C220.292 15.7365 220.485 16.3525 220.485 17.1435V24H223.005V17.0175C223.005 16.2685 223.208 15.684 223.614 15.264C224.027 14.844 224.538 14.634 225.147 14.634C225.798 14.634 226.316 14.8545 226.701 15.2955C227.093 15.7295 227.289 16.335 227.289 17.112V24H229.819V16.4715C229.819 15.2395 229.483 14.249 228.811 13.5C228.146 12.751 227.187 12.3765 225.934 12.3765C225.199 12.3765 224.527 12.5375 223.918 12.8595C223.309 13.1815 222.83 13.6225 222.48 14.1825C222.179 13.6295 221.752 13.192 221.199 12.87C220.646 12.541 219.97 12.3765 219.172 12.3765C218.493 12.3765 217.867 12.513 217.293 12.786C216.726 13.052 216.257 13.4195 215.886 13.8885V12.66H213.649V24ZM235.81 24.3255C236.629 24.3255 237.347 24.1855 237.963 23.9055C238.586 23.6185 239.104 23.23 239.517 22.74V24H241.753V12.66H239.212V18.4875C239.212 19.4045 239.079 20.115 238.813 20.619C238.554 21.116 238.222 21.4625 237.816 21.6585C237.41 21.8475 236.99 21.942 236.556 21.942C235.954 21.942 235.474 21.8125 235.117 21.5535C234.76 21.2875 234.494 20.955 234.319 20.556C234.151 20.15 234.039 19.73 233.983 19.296C233.934 18.862 233.91 18.47 233.91 18.12V12.66H231.348V18.9915C231.348 19.2575 231.369 19.611 231.411 20.052C231.46 20.493 231.561 20.9585 231.715 21.4485C231.869 21.9385 232.107 22.404 232.429 22.845C232.751 23.279 233.185 23.636 233.731 23.916C234.284 24.189 234.977 24.3255 235.81 24.3255ZM243.682 24H246.244V18.1725C246.244 17.2555 246.374 16.5485 246.633 16.0515C246.899 15.5475 247.235 15.201 247.641 15.012C248.054 14.816 248.474 14.718 248.901 14.718C249.503 14.718 249.982 14.851 250.339 15.117C250.696 15.376 250.959 15.7085 251.127 16.1145C251.302 16.5135 251.414 16.93 251.463 17.364C251.519 17.798 251.547 18.19 251.547 18.54V24H254.109V17.6685C254.109 17.4025 254.084 17.049 254.035 16.608C253.993 16.167 253.895 15.7015 253.741 15.2115C253.587 14.7215 253.349 14.2595 253.027 13.8255C252.705 13.3845 252.268 13.0275 251.715 12.7545C251.169 12.4745 250.479 12.3345 249.646 12.3345C248.827 12.3345 248.106 12.478 247.483 12.765C246.867 13.045 246.353 13.43 245.94 13.92V12.66H243.682V24ZM256.059 10.938H258.589V8.6175H256.059V10.938ZM256.059 24H258.589V12.66H256.059V24ZM267.381 24V21.879C266.674 21.984 266.044 22.012 265.491 21.963C264.938 21.914 264.536 21.6795 264.284 21.2595C264.151 21.0425 264.077 20.7625 264.063 20.4195C264.056 20.0695 264.053 19.6705 264.053 19.2225V14.6445H267.381V12.66H264.053V9.51H261.533V12.66H259.475V14.6445H261.533V19.3695C261.533 20.0205 261.54 20.6015 261.554 21.1125C261.568 21.6165 261.704 22.1135 261.963 22.6035C262.257 23.1425 262.688 23.538 263.255 23.79C263.822 24.035 264.462 24.1645 265.176 24.1785C265.897 24.1995 266.632 24.14 267.381 24ZM270.003 29.04H272.376L278.697 12.66H276.166L273.09 20.7765L269.919 12.66H267.283L271.872 23.916L270.003 29.04Z" fill="black"/>
<path opacity="0.4" d="M26.5381 16.3249C28.9911 16.3249 30.981 14.3364 30.981 11.8834C30.981 9.43039 28.9911 7.44189 26.5381 7.44189" stroke="#200E32" stroke-width="2" stroke-linecap="round" stroke-linejoin="round"/>
<path d="M28.5807 21.1515C29.3132 21.202 30.0415 21.3059 30.7586 21.4672C31.7549 21.6623 32.9534 22.0707 33.38 22.9646C33.6522 23.5371 33.6522 24.2037 33.38 24.7776C32.9548 25.6716 31.7549 26.0785 30.7586 26.2834" stroke="#200E32" stroke-width="2" stroke-linecap="round" stroke-linejoin="round"/>
<path opacity="0.4" d="M9.23151 16.3249C6.77852 16.3249 4.78862 14.3364 4.78862 11.8834C4.78862 9.43039 6.77852 7.44189 9.23151 7.44189" stroke="#200E32" stroke-width="2" stroke-linecap="round" stroke-linejoin="round"/>
<path d="M7.18927 21.1515C6.45674 21.202 5.72842 21.3059 5.01133 21.4672C4.01498 21.6623 2.81655 22.0707 2.39135 22.9646C2.1177 23.5371 2.1177 24.2037 2.39135 24.7776C2.81515 25.6716 4.01498 26.0785 5.01133 26.2834" stroke="#200E32" stroke-width="2" stroke-linecap="round" stroke-linejoin="round"/>
<path fill-rule="evenodd" clip-rule="evenodd" d="M17.878 22.108C22.8485 22.108 27.0949 22.8602 27.0949 25.8703C27.0949 28.879 22.8766 29.6593 17.878 29.6593C12.9061 29.6593 8.66104 28.9071 8.66104 25.897C8.66104 22.8869 12.8794 22.108 17.878 22.108Z" stroke="#200E32" stroke-width="2" stroke-linecap="round" stroke-linejoin="round"/>
<path opacity="0.4" fill-rule="evenodd" clip-rule="evenodd" d="M17.8781 17.8145C14.6 17.8145 11.9716 15.1861 11.9716 11.9065C11.9716 8.6284 14.6 6 17.8781 6C21.1563 6 23.7847 8.6284 23.7847 11.9065C23.7847 15.1861 21.1563 17.8145 17.8781 17.8145Z" stroke="#200E32" stroke-width="2" stroke-linecap="round" stroke-linejoin="round"/>
</svg>
