<svg width="338" height="94" viewBox="0 0 338 94" fill="none" xmlns="http://www.w3.org/2000/svg">
<path d="M65.736 58.24C66.8667 58.24 67.8053 58.0053 68.552 57.536C69.304 57.0613 69.8667 56.4133 70.24 55.592C70.6133 54.7707 70.8 53.8427 70.8 52.808C70.8 52.7493 70.7973 52.6533 70.792 52.52C70.7867 52.3813 70.7787 52.2507 70.768 52.128H66.88V53.136H69.536C69.4773 54.3627 69.1467 55.3333 68.544 56.048C67.9413 56.7627 67.0213 57.1173 65.784 57.112C64.8827 57.1067 64.128 56.8987 63.52 56.488C62.9173 56.0773 62.4667 55.5067 62.168 54.776C61.8693 54.0453 61.7227 53.2 61.728 52.24C61.7387 51.28 61.8933 50.4347 62.192 49.704C62.4907 48.9733 62.9387 48.4027 63.536 47.992C64.1333 47.5813 64.8827 47.3787 65.784 47.384C66.632 47.384 67.3413 47.5947 67.912 48.016C68.488 48.4373 68.904 49 69.16 49.704L70.344 49.416C70.04 48.4507 69.5013 47.6827 68.728 47.112C67.96 46.536 66.9627 46.248 65.736 46.248C64.6373 46.248 63.696 46.496 62.912 46.992C62.128 47.488 61.5253 48.184 61.104 49.08C60.688 49.976 60.48 51.0293 60.48 52.24C60.48 53.456 60.6907 54.5147 61.112 55.416C61.5387 56.312 62.144 57.008 62.928 57.504C63.712 57.9947 64.648 58.24 65.736 58.24ZM76.0573 58.24C76.8946 58.24 77.6439 58.0347 78.3053 57.624C78.9719 57.2133 79.4759 56.6293 79.8173 55.872L78.7213 55.448C78.1719 56.5573 77.2679 57.112 76.0093 57.112C75.1453 57.112 74.4679 56.8427 73.9773 56.304C73.4919 55.7653 73.2253 55 73.1773 54.008H79.9853C80.0279 52.4827 79.6946 51.288 78.9853 50.424C78.2813 49.5547 77.2893 49.12 76.0093 49.12C75.1773 49.12 74.4546 49.3067 73.8413 49.68C73.2333 50.0533 72.7613 50.584 72.4253 51.272C72.0893 51.96 71.9213 52.776 71.9213 53.72C71.9213 54.632 72.0893 55.4267 72.4253 56.104C72.7666 56.7813 73.2466 57.3067 73.8653 57.68C74.4893 58.0533 75.2199 58.24 76.0573 58.24ZM76.0413 50.2C77.6679 50.2 78.5719 51.1413 78.7533 53.024H73.2013C73.2919 52.112 73.5799 51.4133 74.0653 50.928C74.5506 50.4427 75.2093 50.2 76.0413 50.2ZM86.4646 58V56.968C85.846 57.0693 85.326 57.0853 84.9046 57.016C84.4886 56.9467 84.1846 56.7333 83.9926 56.376C83.8913 56.1893 83.8353 55.976 83.8246 55.736C83.8193 55.4907 83.8166 55.1867 83.8166 54.824V50.368H86.4646V49.36H83.8166V46.96H82.6486V49.36H80.8006V50.368H82.6486V54.872C82.6486 55.2933 82.654 55.6693 82.6646 56C82.6806 56.3307 82.766 56.6533 82.9206 56.968C83.1126 57.352 83.3926 57.6347 83.7606 57.816C84.134 57.9973 84.5553 58.0987 85.0246 58.12C85.4993 58.1413 85.9793 58.1013 86.4646 58ZM91.53 47.72H92.706V46.4H91.53V47.72ZM91.53 58H92.706V49.36H91.53V58ZM95.0964 58H96.2804V53.392C96.2804 52.416 96.499 51.6507 96.9364 51.096C97.3737 50.5413 98.0084 50.264 98.8404 50.264C99.443 50.264 99.9284 50.4107 100.296 50.704C100.664 50.992 100.931 51.3867 101.096 51.888C101.262 52.3893 101.344 52.9573 101.344 53.592V58H102.528V53.248C102.528 52.7627 102.467 52.2773 102.344 51.792C102.227 51.3067 102.035 50.864 101.768 50.464C101.502 50.064 101.147 49.744 100.704 49.504C100.262 49.264 99.715 49.144 99.0644 49.144C98.4457 49.144 97.8857 49.264 97.3844 49.504C96.8884 49.7387 96.4804 50.0907 96.1604 50.56V49.36H95.0964V58ZM110.28 58.24C111.789 58.24 112.885 57.6827 113.568 56.568V58H114.616V52.632C114.616 52.312 114.6 51.9973 114.568 51.688C114.536 51.3787 114.466 51.0987 114.36 50.848C114.13 50.288 113.738 49.8613 113.184 49.568C112.634 49.2693 111.965 49.12 111.176 49.12C110.226 49.12 109.453 49.3333 108.856 49.76C108.258 50.1867 107.858 50.7867 107.656 51.56L108.799 51.896C108.965 51.32 109.25 50.8987 109.656 50.632C110.066 50.3653 110.568 50.232 111.16 50.232C111.981 50.232 112.568 50.424 112.92 50.808C113.272 51.1867 113.453 51.7653 113.464 52.544C113.08 52.5973 112.656 52.6533 112.192 52.712C111.733 52.7707 111.272 52.8373 110.808 52.912C110.344 52.9867 109.917 53.072 109.528 53.168C108.882 53.3387 108.354 53.624 107.944 54.024C107.533 54.4187 107.328 54.9707 107.328 55.68C107.328 56.1387 107.437 56.5627 107.656 56.952C107.874 57.3413 108.202 57.6533 108.64 57.888C109.082 58.1227 109.629 58.24 110.28 58.24ZM110.416 57.224C109.952 57.224 109.578 57.1493 109.296 57C109.018 56.8453 108.816 56.6507 108.688 56.416C108.565 56.176 108.504 55.9307 108.504 55.68C108.504 55.2107 108.661 54.8587 108.976 54.624C109.29 54.3893 109.632 54.2187 110 54.112C110.474 53.984 111.026 53.88 111.656 53.8C112.285 53.72 112.882 53.6453 113.448 53.576C113.448 53.7733 113.44 54 113.424 54.256C113.413 54.5067 113.384 54.7387 113.336 54.952C113.224 55.6027 112.914 56.144 112.408 56.576C111.906 57.008 111.242 57.224 110.416 57.224ZM116.69 58H117.874V53.392C117.874 52.416 118.093 51.6507 118.53 51.096C118.967 50.5413 119.602 50.264 120.434 50.264C121.037 50.264 121.522 50.4107 121.89 50.704C122.258 50.992 122.525 51.3867 122.69 51.888C122.855 52.3893 122.938 52.9573 122.938 53.592V58H124.122V53.248C124.122 52.7627 124.061 52.2773 123.938 51.792C123.821 51.3067 123.629 50.864 123.362 50.464C123.095 50.064 122.741 49.744 122.298 49.504C121.855 49.264 121.309 49.144 120.658 49.144C120.039 49.144 119.479 49.264 118.978 49.504C118.482 49.7387 118.074 50.0907 117.754 50.56V49.36H116.69V58ZM129.488 58.24C130.117 58.24 130.669 58.112 131.144 57.856C131.618 57.5947 132.01 57.24 132.32 56.792V58H133.376V46.48H132.192V50.376C131.877 49.9813 131.488 49.6747 131.024 49.456C130.565 49.232 130.037 49.12 129.44 49.12C128.65 49.12 127.973 49.32 127.408 49.72C126.842 50.12 126.408 50.664 126.104 51.352C125.805 52.04 125.656 52.8133 125.656 53.672C125.656 54.536 125.805 55.312 126.104 56C126.408 56.688 126.845 57.2347 127.416 57.64C127.992 58.04 128.682 58.24 129.488 58.24ZM129.608 57.144C129.01 57.144 128.509 56.992 128.104 56.688C127.704 56.3787 127.402 55.9627 127.2 55.44C127.002 54.9173 126.904 54.328 126.904 53.672C126.904 53.0213 127.002 52.4347 127.2 51.912C127.397 51.3893 127.696 50.976 128.096 50.672C128.501 50.368 129.013 50.216 129.632 50.216C130.533 50.216 131.205 50.5387 131.648 51.184C132.096 51.824 132.32 52.6533 132.32 53.672C132.32 54.3387 132.221 54.9333 132.024 55.456C131.826 55.9787 131.528 56.392 131.128 56.696C130.728 56.9947 130.221 57.144 129.608 57.144ZM142.431 58.24C143.284 58.24 144.015 58.048 144.623 57.664C145.236 57.28 145.706 56.7467 146.031 56.064C146.362 55.376 146.527 54.5787 146.527 53.672C146.527 52.7813 146.364 51.9947 146.039 51.312C145.719 50.624 145.252 50.088 144.639 49.704C144.031 49.3147 143.295 49.12 142.431 49.12C141.588 49.12 140.86 49.312 140.247 49.696C139.639 50.0747 139.17 50.6053 138.839 51.288C138.508 51.9707 138.343 52.7653 138.343 53.672C138.343 54.5627 138.503 55.352 138.823 56.04C139.148 56.728 139.615 57.2667 140.223 57.656C140.836 58.0453 141.572 58.24 142.431 58.24ZM142.431 57.112C141.498 57.112 140.791 56.8 140.311 56.176C139.831 55.5467 139.591 54.712 139.591 53.672C139.591 52.664 139.823 51.8427 140.287 51.208C140.751 50.568 141.466 50.248 142.431 50.248C143.386 50.248 144.098 50.56 144.567 51.184C145.042 51.8027 145.279 52.632 145.279 53.672C145.279 54.6907 145.044 55.52 144.575 56.16C144.106 56.7947 143.391 57.112 142.431 57.112ZM151.596 58.216C152.215 58.216 152.772 58.0987 153.268 57.864C153.769 57.624 154.18 57.2693 154.5 56.8V58H155.556V49.36H154.38V53.968C154.38 54.944 154.161 55.7093 153.724 56.264C153.287 56.8187 152.652 57.096 151.82 57.096C151.217 57.096 150.732 56.952 150.364 56.664C149.996 56.3707 149.729 55.9733 149.564 55.472C149.399 54.9707 149.316 54.4027 149.316 53.768V49.36H148.132V54.112C148.132 54.5973 148.191 55.0827 148.308 55.568C148.431 56.0533 148.625 56.496 148.892 56.896C149.159 57.296 149.513 57.616 149.956 57.856C150.404 58.096 150.951 58.216 151.596 58.216ZM162.496 58V56.968C161.877 57.0693 161.357 57.0853 160.936 57.016C160.52 56.9467 160.216 56.7333 160.024 56.376C159.923 56.1893 159.867 55.976 159.856 55.736C159.851 55.4907 159.848 55.1867 159.848 54.824V50.368H162.496V49.36H159.848V46.96H158.68V49.36H156.832V50.368H158.68V54.872C158.68 55.2933 158.685 55.6693 158.696 56C158.712 56.3307 158.797 56.6533 158.952 56.968C159.144 57.352 159.424 57.6347 159.792 57.816C160.165 57.9973 160.587 58.0987 161.056 58.12C161.531 58.1413 162.011 58.1013 162.496 58ZM171.009 58.24C171.863 58.24 172.593 58.048 173.201 57.664C173.815 57.28 174.284 56.7467 174.609 56.064C174.94 55.376 175.105 54.5787 175.105 53.672C175.105 52.7813 174.943 51.9947 174.617 51.312C174.297 50.624 173.831 50.088 173.217 49.704C172.609 49.3147 171.873 49.12 171.009 49.12C170.167 49.12 169.439 49.312 168.825 49.696C168.217 50.0747 167.748 50.6053 167.417 51.288C167.087 51.9707 166.921 52.7653 166.921 53.672C166.921 54.5627 167.081 55.352 167.401 56.04C167.727 56.728 168.193 57.2667 168.801 57.656C169.415 58.0453 170.151 58.24 171.009 58.24ZM171.009 57.112C170.076 57.112 169.369 56.8 168.889 56.176C168.409 55.5467 168.169 54.712 168.169 53.672C168.169 52.664 168.401 51.8427 168.865 51.208C169.329 50.568 170.044 50.248 171.009 50.248C171.964 50.248 172.676 50.56 173.145 51.184C173.62 51.8027 173.857 52.632 173.857 53.672C173.857 54.6907 173.623 55.52 173.153 56.16C172.684 56.7947 171.969 57.112 171.009 57.112ZM177.726 58H178.902V50.368H181.262V49.36H178.902V48.592C178.902 47.6853 179.347 47.232 180.238 47.232H181.262V46.24H180.158C179.827 46.24 179.494 46.2747 179.158 46.344C178.822 46.4133 178.523 46.5893 178.262 46.872C178.027 47.128 177.878 47.4187 177.814 47.744C177.755 48.064 177.726 48.3893 177.726 48.72V49.36H176.23V50.368H177.726V58ZM188.217 58.24C189.726 58.24 190.822 57.6827 191.505 56.568V58H192.553V52.632C192.553 52.312 192.537 51.9973 192.505 51.688C192.473 51.3787 192.404 51.0987 192.297 50.848C192.068 50.288 191.676 49.8613 191.121 49.568C190.572 49.2693 189.902 49.12 189.113 49.12C188.164 49.12 187.39 49.3333 186.793 49.76C186.196 50.1867 185.796 50.7867 185.593 51.56L186.737 51.896C186.902 51.32 187.188 50.8987 187.593 50.632C188.004 50.3653 188.505 50.232 189.097 50.232C189.918 50.232 190.505 50.424 190.857 50.808C191.209 51.1867 191.39 51.7653 191.401 52.544C191.017 52.5973 190.593 52.6533 190.129 52.712C189.67 52.7707 189.209 52.8373 188.745 52.912C188.281 52.9867 187.854 53.072 187.465 53.168C186.82 53.3387 186.292 53.624 185.881 54.024C185.47 54.4187 185.265 54.9707 185.265 55.68C185.265 56.1387 185.374 56.5627 185.593 56.952C185.812 57.3413 186.14 57.6533 186.577 57.888C187.02 58.1227 187.566 58.24 188.217 58.24ZM188.353 57.224C187.889 57.224 187.516 57.1493 187.233 57C186.956 56.8453 186.753 56.6507 186.625 56.416C186.502 56.176 186.441 55.9307 186.441 55.68C186.441 55.2107 186.598 54.8587 186.913 54.624C187.228 54.3893 187.569 54.2187 187.937 54.112C188.412 53.984 188.964 53.88 189.593 53.8C190.222 53.72 190.82 53.6453 191.385 53.576C191.385 53.7733 191.377 54 191.361 54.256C191.35 54.5067 191.321 54.7387 191.273 54.952C191.161 55.6027 190.852 56.144 190.345 56.576C189.844 57.008 189.18 57.224 188.353 57.224ZM202.543 58V56.968C201.924 57.0693 201.404 57.0853 200.983 57.016C200.567 56.9467 200.263 56.7333 200.071 56.376C199.969 56.1893 199.913 55.976 199.903 55.736C199.897 55.4907 199.895 55.1867 199.895 54.824V50.368H202.543V49.36H199.895V46.96H198.727V49.36H196.879V50.368H198.727V54.872C198.727 55.2933 198.732 55.6693 198.743 56C198.759 56.3307 198.844 56.6533 198.999 56.968C199.191 57.352 199.471 57.6347 199.839 57.816C200.212 57.9973 200.633 58.0987 201.103 58.12C201.577 58.1413 202.057 58.1013 202.543 58ZM204.245 58H205.421V53.688C205.421 53.1707 205.48 52.656 205.597 52.144C205.72 51.6267 205.997 51.1973 206.429 50.856C206.744 50.6 207.085 50.4533 207.453 50.416C207.826 50.3733 208.173 50.3893 208.493 50.464V49.36C208.114 49.264 207.685 49.2613 207.205 49.352C206.725 49.4373 206.314 49.6293 205.973 49.928C205.717 50.12 205.493 50.3867 205.301 50.728V49.36H204.245V58ZM212.17 58.24C213.679 58.24 214.775 57.6827 215.458 56.568V58H216.506V52.632C216.506 52.312 216.49 51.9973 216.458 51.688C216.426 51.3787 216.357 51.0987 216.25 50.848C216.021 50.288 215.629 49.8613 215.074 49.568C214.525 49.2693 213.855 49.12 213.066 49.12C212.117 49.12 211.343 49.3333 210.746 49.76C210.149 50.1867 209.749 50.7867 209.546 51.56L210.69 51.896C210.855 51.32 211.141 50.8987 211.546 50.632C211.957 50.3653 212.458 50.232 213.05 50.232C213.871 50.232 214.458 50.424 214.81 50.808C215.162 51.1867 215.343 51.7653 215.354 52.544C214.97 52.5973 214.546 52.6533 214.082 52.712C213.623 52.7707 213.162 52.8373 212.698 52.912C212.234 52.9867 211.807 53.072 211.418 53.168C210.773 53.3387 210.245 53.624 209.834 54.024C209.423 54.4187 209.218 54.9707 209.218 55.68C209.218 56.1387 209.327 56.5627 209.546 56.952C209.765 57.3413 210.093 57.6533 210.53 57.888C210.973 58.1227 211.519 58.24 212.17 58.24ZM212.306 57.224C211.842 57.224 211.469 57.1493 211.186 57C210.909 56.8453 210.706 56.6507 210.578 56.416C210.455 56.176 210.394 55.9307 210.394 55.68C210.394 55.2107 210.551 54.8587 210.866 54.624C211.181 54.3893 211.522 54.2187 211.89 54.112C212.365 53.984 212.917 53.88 213.546 53.8C214.175 53.72 214.773 53.6453 215.338 53.576C215.338 53.7733 215.33 54 215.314 54.256C215.303 54.5067 215.274 54.7387 215.226 54.952C215.114 55.6027 214.805 56.144 214.298 56.576C213.797 57.008 213.133 57.224 212.306 57.224ZM221.941 58.24C222.57 58.24 223.122 58.112 223.597 57.856C224.071 57.5947 224.463 57.24 224.773 56.792V58H225.829V46.48H224.645V50.376C224.33 49.9813 223.941 49.6747 223.477 49.456C223.018 49.232 222.49 49.12 221.893 49.12C221.103 49.12 220.426 49.32 219.861 49.72C219.295 50.12 218.861 50.664 218.557 51.352C218.258 52.04 218.109 52.8133 218.109 53.672C218.109 54.536 218.258 55.312 218.557 56C218.861 56.688 219.298 57.2347 219.869 57.64C220.445 58.04 221.135 58.24 221.941 58.24ZM222.061 57.144C221.463 57.144 220.962 56.992 220.557 56.688C220.157 56.3787 219.855 55.9627 219.653 55.44C219.455 54.9173 219.357 54.328 219.357 53.672C219.357 53.0213 219.455 52.4347 219.653 51.912C219.85 51.3893 220.149 50.976 220.549 50.672C220.954 50.368 221.466 50.216 222.085 50.216C222.986 50.216 223.658 50.5387 224.101 51.184C224.549 51.824 224.773 52.6533 224.773 53.672C224.773 54.3387 224.674 54.9333 224.477 55.456C224.279 55.9787 223.981 56.392 223.581 56.696C223.181 56.9947 222.674 57.144 222.061 57.144ZM231.729 58.24C232.566 58.24 233.316 58.0347 233.977 57.624C234.644 57.2133 235.148 56.6293 235.489 55.872L234.393 55.448C233.844 56.5573 232.94 57.112 231.681 57.112C230.817 57.112 230.14 56.8427 229.649 56.304C229.164 55.7653 228.897 55 228.849 54.008H235.657C235.7 52.4827 235.366 51.288 234.657 50.424C233.953 49.5547 232.961 49.12 231.681 49.12C230.849 49.12 230.126 49.3067 229.513 49.68C228.905 50.0533 228.433 50.584 228.097 51.272C227.761 51.96 227.593 52.776 227.593 53.72C227.593 54.632 227.761 55.4267 228.097 56.104C228.438 56.7813 228.918 57.3067 229.537 57.68C230.161 58.0533 230.892 58.24 231.729 58.24ZM231.713 50.2C233.34 50.2 234.244 51.1413 234.425 53.024H228.873C228.964 52.112 229.252 51.4133 229.737 50.928C230.222 50.4427 230.881 50.2 231.713 50.2ZM243.108 58.24C244.617 58.24 245.713 57.6827 246.396 56.568V58H247.444V52.632C247.444 52.312 247.428 51.9973 247.396 51.688C247.364 51.3787 247.294 51.0987 247.188 50.848C246.958 50.288 246.566 49.8613 246.012 49.568C245.462 49.2693 244.793 49.12 244.004 49.12C243.054 49.12 242.281 49.3333 241.684 49.76C241.086 50.1867 240.686 50.7867 240.484 51.56L241.628 51.896C241.793 51.32 242.078 50.8987 242.484 50.632C242.894 50.3653 243.396 50.232 243.988 50.232C244.809 50.232 245.396 50.424 245.748 50.808C246.1 51.1867 246.281 51.7653 246.292 52.544C245.908 52.5973 245.484 52.6533 245.02 52.712C244.561 52.7707 244.1 52.8373 243.636 52.912C243.172 52.9867 242.745 53.072 242.356 53.168C241.71 53.3387 241.182 53.624 240.772 54.024C240.361 54.4187 240.156 54.9707 240.156 55.68C240.156 56.1387 240.265 56.5627 240.484 56.952C240.702 57.3413 241.03 57.6533 241.468 57.888C241.91 58.1227 242.457 58.24 243.108 58.24ZM243.244 57.224C242.78 57.224 242.406 57.1493 242.124 57C241.846 56.8453 241.644 56.6507 241.516 56.416C241.393 56.176 241.332 55.9307 241.332 55.68C241.332 55.2107 241.489 54.8587 241.804 54.624C242.118 54.3893 242.46 54.2187 242.828 54.112C243.302 53.984 243.854 53.88 244.484 53.8C245.113 53.72 245.71 53.6453 246.276 53.576C246.276 53.7733 246.268 54 246.252 54.256C246.241 54.5067 246.212 54.7387 246.164 54.952C246.052 55.6027 245.742 56.144 245.236 56.576C244.734 57.008 244.07 57.224 243.244 57.224ZM249.686 58H250.862V46.24H249.686V58ZM256.869 58.24C257.722 58.24 258.453 58.048 259.061 57.664C259.674 57.28 260.143 56.7467 260.469 56.064C260.799 55.376 260.965 54.5787 260.965 53.672C260.965 52.7813 260.802 51.9947 260.477 51.312C260.157 50.624 259.69 50.088 259.077 49.704C258.469 49.3147 257.733 49.12 256.869 49.12C256.026 49.12 255.298 49.312 254.685 49.696C254.077 50.0747 253.607 50.6053 253.277 51.288C252.946 51.9707 252.781 52.7653 252.781 53.672C252.781 54.5627 252.941 55.352 253.261 56.04C253.586 56.728 254.053 57.2667 254.661 57.656C255.274 58.0453 256.01 58.24 256.869 58.24ZM256.869 57.112C255.935 57.112 255.229 56.8 254.749 56.176C254.269 55.5467 254.029 54.712 254.029 53.672C254.029 52.664 254.261 51.8427 254.725 51.208C255.189 50.568 255.903 50.248 256.869 50.248C257.823 50.248 258.535 50.56 259.005 51.184C259.479 51.8027 259.717 52.632 259.717 53.672C259.717 54.6907 259.482 55.52 259.013 56.16C258.543 56.7947 257.829 57.112 256.869 57.112ZM262.721 58H263.905V53.392C263.905 52.416 264.124 51.6507 264.561 51.096C264.999 50.5413 265.633 50.264 266.465 50.264C267.068 50.264 267.553 50.4107 267.921 50.704C268.289 50.992 268.556 51.3867 268.721 51.888C268.887 52.3893 268.969 52.9573 268.969 53.592V58H270.153V53.248C270.153 52.7627 270.092 52.2773 269.969 51.792C269.852 51.3067 269.66 50.864 269.393 50.464C269.127 50.064 268.772 49.744 268.329 49.504C267.887 49.264 267.34 49.144 266.689 49.144C266.071 49.144 265.511 49.264 265.009 49.504C264.513 49.7387 264.105 50.0907 263.785 50.56V49.36H262.721V58ZM275.581 58.24C276.163 58.24 276.68 58.128 277.133 57.904C277.587 57.68 277.968 57.3707 278.277 56.976V57.864C278.283 58.8773 278.083 59.6427 277.677 60.16C277.272 60.6773 276.6 60.936 275.661 60.936C275.208 60.936 274.763 60.8293 274.325 60.616C273.888 60.408 273.552 60.064 273.317 59.584L272.253 60.176C272.621 60.848 273.115 61.3333 273.733 61.632C274.357 61.9307 275 62.08 275.661 62.08C276.717 62.08 277.56 61.8507 278.189 61.392C278.819 60.9333 279.211 60.2213 279.365 59.256C279.403 59.0373 279.427 58.8133 279.437 58.584C279.453 58.36 279.461 58.1253 279.461 57.88V49.36H278.413V50.552C278.099 50.104 277.699 49.7547 277.213 49.504C276.733 49.248 276.173 49.12 275.533 49.12C274.744 49.12 274.067 49.32 273.501 49.72C272.936 50.12 272.501 50.664 272.197 51.352C271.899 52.04 271.749 52.8133 271.749 53.672C271.749 54.536 271.899 55.312 272.197 56C272.501 56.688 272.939 57.2347 273.509 57.64C274.085 58.04 274.776 58.24 275.581 58.24ZM275.701 57.144C275.104 57.144 274.603 56.992 274.197 56.688C273.797 56.3787 273.496 55.9627 273.293 55.44C273.096 54.9173 272.997 54.328 272.997 53.672C272.997 53.0213 273.096 52.4347 273.293 51.912C273.491 51.3893 273.789 50.976 274.189 50.672C274.595 50.368 275.107 50.216 275.725 50.216C276.627 50.216 277.299 50.5387 277.741 51.184C278.189 51.824 278.413 52.6533 278.413 53.672C278.413 54.3387 278.315 54.9333 278.117 55.456C277.92 55.9787 277.621 56.392 277.221 56.696C276.821 56.9947 276.315 57.144 275.701 57.144ZM286.741 58H287.765L289.917 51.12L292.077 58H293.101L295.741 49.36H294.573L292.509 56.072L290.453 49.36H289.381L287.325 56.072L285.277 49.36L284.101 49.352L286.741 58ZM297.343 47.72H298.519V46.4H297.343V47.72ZM297.343 58H298.519V49.36H297.343V58ZM305.621 58V56.968C305.002 57.0693 304.482 57.0853 304.061 57.016C303.645 56.9467 303.341 56.7333 303.149 56.376C303.048 56.1893 302.992 55.976 302.981 55.736C302.976 55.4907 302.973 55.1867 302.973 54.824V50.368H305.621V49.36H302.973V46.96H301.805V49.36H299.957V50.368H301.805V54.872C301.805 55.2933 301.81 55.6693 301.821 56C301.837 56.3307 301.922 56.6533 302.077 56.968C302.269 57.352 302.549 57.6347 302.917 57.816C303.29 57.9973 303.712 58.0987 304.181 58.12C304.656 58.1413 305.136 58.1013 305.621 58ZM307.315 58H308.499V53.392C308.499 52.416 308.718 51.6507 309.155 51.096C309.592 50.5413 310.227 50.264 311.059 50.264C311.662 50.264 312.147 50.4107 312.515 50.704C312.883 50.992 313.15 51.3867 313.315 51.888C313.48 52.3893 313.563 52.9573 313.563 53.592V58H314.747V53.248C314.747 52.7627 314.686 52.2773 314.563 51.792C314.446 51.3067 314.254 50.864 313.987 50.464C313.72 50.064 313.366 49.744 312.923 49.504C312.48 49.264 311.934 49.144 311.283 49.144C310.664 49.144 310.104 49.264 309.603 49.504C309.107 49.7387 308.699 50.0907 308.379 50.56V46.48H307.315V58ZM65.824 86V84.968C65.2053 85.0693 64.6853 85.0853 64.264 85.016C63.848 84.9467 63.544 84.7333 63.352 84.376C63.2507 84.1893 63.1947 83.976 63.184 83.736C63.1787 83.4907 63.176 83.1867 63.176 82.824V78.368H65.824V77.36H63.176V74.96H62.008V77.36H60.16V78.368H62.008V82.872C62.008 83.2933 62.0133 83.6693 62.024 84C62.04 84.3307 62.1253 84.6533 62.28 84.968C62.472 85.352 62.752 85.6347 63.12 85.816C63.4933 85.9973 63.9147 86.0987 64.384 86.12C64.8587 86.1413 65.3387 86.1013 65.824 86ZM67.5183 86H68.7023V81.392C68.7023 80.416 68.9209 79.6507 69.3583 79.096C69.7956 78.5413 70.4303 78.264 71.2623 78.264C71.8649 78.264 72.3503 78.4107 72.7183 78.704C73.0863 78.992 73.3529 79.3867 73.5183 79.888C73.6836 80.3893 73.7663 80.9573 73.7663 81.592V86H74.9503V81.248C74.9503 80.7627 74.8889 80.2773 74.7663 79.792C74.6489 79.3067 74.4569 78.864 74.1903 78.464C73.9236 78.064 73.5689 77.744 73.1263 77.504C72.6836 77.264 72.1369 77.144 71.4863 77.144C70.8676 77.144 70.3076 77.264 69.8063 77.504C69.3103 77.7387 68.9023 78.0907 68.5823 78.56V74.48H67.5183V86ZM80.6823 86.24C81.5196 86.24 82.2689 86.0347 82.9303 85.624C83.5969 85.2133 84.1009 84.6293 84.4423 83.872L83.3463 83.448C82.7969 84.5573 81.8929 85.112 80.6343 85.112C79.7703 85.112 79.0929 84.8427 78.6023 84.304C78.1169 83.7653 77.8503 83 77.8023 82.008H84.6103C84.6529 80.4827 84.3196 79.288 83.6103 78.424C82.9063 77.5547 81.9143 77.12 80.6343 77.12C79.8023 77.12 79.0796 77.3067 78.4663 77.68C77.8583 78.0533 77.3863 78.584 77.0503 79.272C76.7143 79.96 76.5463 80.776 76.5463 81.72C76.5463 82.632 76.7143 83.4267 77.0503 84.104C77.3916 84.7813 77.8716 85.3067 78.4903 85.68C79.1143 86.0533 79.8449 86.24 80.6823 86.24ZM80.6663 78.2C82.2929 78.2 83.1969 79.1413 83.3783 81.024H77.8263C77.9169 80.112 78.2049 79.4133 78.6903 78.928C79.1756 78.4427 79.8343 78.2 80.6663 78.2ZM89.5808 86H90.6368V84.792C90.9461 85.24 91.3381 85.5947 91.8128 85.856C92.2874 86.112 92.8394 86.24 93.4688 86.24C94.2794 86.24 94.9701 86.04 95.5408 85.64C96.1114 85.2347 96.5461 84.688 96.8448 84C97.1488 83.312 97.3008 82.536 97.3008 81.672C97.3008 80.8133 97.1488 80.04 96.8448 79.352C96.5461 78.664 96.1141 78.12 95.5488 77.72C94.9834 77.32 94.3061 77.12 93.5168 77.12C92.9194 77.12 92.3888 77.232 91.9248 77.456C91.4661 77.6747 91.0794 77.9813 90.7648 78.376V74.48H89.5808V86ZM93.3488 85.144C92.7354 85.144 92.2288 84.9947 91.8288 84.696C91.4288 84.392 91.1301 83.9787 90.9328 83.456C90.7354 82.9333 90.6368 82.3387 90.6368 81.672C90.6368 80.6533 90.8581 79.824 91.3008 79.184C91.7488 78.5387 92.4234 78.216 93.3248 78.216C93.9434 78.216 94.4528 78.368 94.8528 78.672C95.2581 78.976 95.5594 79.3893 95.7568 79.912C95.9541 80.4347 96.0528 81.0213 96.0528 81.672C96.0528 82.328 95.9514 82.9173 95.7488 83.44C95.5514 83.9627 95.2528 84.3787 94.8528 84.688C94.4528 84.992 93.9514 85.144 93.3488 85.144ZM99.0575 86H100.234V81.688C100.234 81.1707 100.292 80.656 100.41 80.144C100.532 79.6267 100.81 79.1973 101.242 78.856C101.556 78.6 101.898 78.4533 102.266 78.416C102.639 78.3733 102.986 78.3893 103.306 78.464V77.36C102.927 77.264 102.498 77.2613 102.018 77.352C101.538 77.4373 101.127 77.6293 100.786 77.928C100.53 78.12 100.306 78.3867 100.114 78.728V77.36H99.0575V86ZM108.323 86.24C109.16 86.24 109.91 86.0347 110.571 85.624C111.238 85.2133 111.742 84.6293 112.083 83.872L110.987 83.448C110.438 84.5573 109.534 85.112 108.275 85.112C107.411 85.112 106.734 84.8427 106.243 84.304C105.758 83.7653 105.491 83 105.443 82.008H112.251C112.294 80.4827 111.96 79.288 111.251 78.424C110.547 77.5547 109.555 77.12 108.275 77.12C107.443 77.12 106.72 77.3067 106.107 77.68C105.499 78.0533 105.027 78.584 104.691 79.272C104.355 79.96 104.187 80.776 104.187 81.72C104.187 82.632 104.355 83.4267 104.691 84.104C105.032 84.7813 105.512 85.3067 106.131 85.68C106.755 86.0533 107.486 86.24 108.323 86.24ZM108.307 78.2C109.934 78.2 110.838 79.1413 111.019 81.024H105.467C105.558 80.112 105.846 79.4133 106.331 78.928C106.816 78.4427 107.475 78.2 108.307 78.2ZM116.342 86.24C117.851 86.24 118.947 85.6827 119.63 84.568V86H120.678V80.632C120.678 80.312 120.662 79.9973 120.63 79.688C120.598 79.3787 120.529 79.0987 120.422 78.848C120.193 78.288 119.801 77.8613 119.246 77.568C118.697 77.2693 118.027 77.12 117.238 77.12C116.289 77.12 115.515 77.3333 114.918 77.76C114.321 78.1867 113.921 78.7867 113.718 79.56L114.862 79.896C115.027 79.32 115.313 78.8987 115.718 78.632C116.129 78.3653 116.63 78.232 117.222 78.232C118.043 78.232 118.63 78.424 118.982 78.808C119.334 79.1867 119.515 79.7653 119.526 80.544C119.142 80.5973 118.718 80.6533 118.254 80.712C117.795 80.7707 117.334 80.8373 116.87 80.912C116.406 80.9867 115.979 81.072 115.59 81.168C114.945 81.3387 114.417 81.624 114.006 82.024C113.595 82.4187 113.39 82.9707 113.39 83.68C113.39 84.1387 113.499 84.5627 113.718 84.952C113.937 85.3413 114.265 85.6533 114.702 85.888C115.145 86.1227 115.691 86.24 116.342 86.24ZM116.478 85.224C116.014 85.224 115.641 85.1493 115.358 85C115.081 84.8453 114.878 84.6507 114.75 84.416C114.627 84.176 114.566 83.9307 114.566 83.68C114.566 83.2107 114.723 82.8587 115.038 82.624C115.353 82.3893 115.694 82.2187 116.062 82.112C116.537 81.984 117.089 81.88 117.718 81.8C118.347 81.72 118.945 81.6453 119.51 81.576C119.51 81.7733 119.502 82 119.486 82.256C119.475 82.5067 119.446 82.7387 119.398 82.952C119.286 83.6027 118.977 84.144 118.47 84.576C117.969 85.008 117.305 85.224 116.478 85.224ZM122.753 86H123.945V81.84L128.185 86H129.897L125.321 81.68L129.369 77.36H127.801L123.945 81.52V74.48H122.761L122.753 86ZM134.15 86.24C135.003 86.24 135.734 86.048 136.342 85.664C136.955 85.28 137.425 84.7467 137.75 84.064C138.081 83.376 138.246 82.5787 138.246 81.672C138.246 80.7813 138.083 79.9947 137.758 79.312C137.438 78.624 136.971 78.088 136.358 77.704C135.75 77.3147 135.014 77.12 134.15 77.12C133.307 77.12 132.579 77.312 131.966 77.696C131.358 78.0747 130.889 78.6053 130.558 79.288C130.227 79.9707 130.062 80.7653 130.062 81.672C130.062 82.5627 130.222 83.352 130.542 84.04C130.867 84.728 131.334 85.2667 131.942 85.656C132.555 86.0453 133.291 86.24 134.15 86.24ZM134.15 85.112C133.217 85.112 132.51 84.8 132.03 84.176C131.55 83.5467 131.31 82.712 131.31 81.672C131.31 80.664 131.542 79.8427 132.006 79.208C132.47 78.568 133.185 78.248 134.15 78.248C135.105 78.248 135.817 78.56 136.286 79.184C136.761 79.8027 136.998 80.632 136.998 81.672C136.998 82.6907 136.763 83.52 136.294 84.16C135.825 84.7947 135.11 85.112 134.15 85.112ZM143.315 86.216C143.933 86.216 144.491 86.0987 144.987 85.864C145.488 85.624 145.899 85.2693 146.219 84.8V86H147.275V77.36H146.099V81.968C146.099 82.944 145.88 83.7093 145.443 84.264C145.005 84.8187 144.371 85.096 143.539 85.096C142.936 85.096 142.451 84.952 142.083 84.664C141.715 84.3707 141.448 83.9733 141.283 83.472C141.117 82.9707 141.035 82.4027 141.035 81.768V77.36H139.851V82.112C139.851 82.5973 139.909 83.0827 140.027 83.568C140.149 84.0533 140.344 84.496 140.611 84.896C140.877 85.296 141.232 85.616 141.675 85.856C142.123 86.096 142.669 86.216 143.315 86.216ZM154.215 86V84.968C153.596 85.0693 153.076 85.0853 152.655 85.016C152.239 84.9467 151.935 84.7333 151.743 84.376C151.641 84.1893 151.585 83.976 151.575 83.736C151.569 83.4907 151.567 83.1867 151.567 82.824V78.368H154.215V77.36H151.567V74.96H150.399V77.36H148.551V78.368H150.399V82.872C150.399 83.2933 150.404 83.6693 150.415 84C150.431 84.3307 150.516 84.6533 150.671 84.968C150.863 85.352 151.143 85.6347 151.511 85.816C151.884 85.9973 152.305 86.0987 152.775 86.12C153.249 86.1413 153.729 86.1013 154.215 86ZM163.824 86V84.968C163.205 85.0693 162.685 85.0853 162.264 85.016C161.848 84.9467 161.544 84.7333 161.352 84.376C161.251 84.1893 161.195 83.976 161.184 83.736C161.179 83.4907 161.176 83.1867 161.176 82.824V78.368H163.824V77.36H161.176V74.96H160.008V77.36H158.16V78.368H160.008V82.872C160.008 83.2933 160.013 83.6693 160.024 84C160.04 84.3307 160.125 84.6533 160.28 84.968C160.472 85.352 160.752 85.6347 161.12 85.816C161.493 85.9973 161.915 86.0987 162.384 86.12C162.859 86.1413 163.339 86.1013 163.824 86ZM168.87 86.24C169.707 86.24 170.456 86.0347 171.118 85.624C171.784 85.2133 172.288 84.6293 172.63 83.872L171.534 83.448C170.984 84.5573 170.08 85.112 168.822 85.112C167.958 85.112 167.28 84.8427 166.79 84.304C166.304 83.7653 166.038 83 165.99 82.008H172.798C172.84 80.4827 172.507 79.288 171.798 78.424C171.094 77.5547 170.102 77.12 168.822 77.12C167.99 77.12 167.267 77.3067 166.654 77.68C166.046 78.0533 165.574 78.584 165.238 79.272C164.902 79.96 164.734 80.776 164.734 81.72C164.734 82.632 164.902 83.4267 165.238 84.104C165.579 84.7813 166.059 85.3067 166.678 85.68C167.302 86.0533 168.032 86.24 168.87 86.24ZM168.854 78.2C170.48 78.2 171.384 79.1413 171.566 81.024H166.014C166.104 80.112 166.392 79.4133 166.878 78.928C167.363 78.4427 168.022 78.2 168.854 78.2ZM176.889 86.24C178.398 86.24 179.494 85.6827 180.177 84.568V86H181.225V80.632C181.225 80.312 181.209 79.9973 181.177 79.688C181.145 79.3787 181.076 79.0987 180.969 78.848C180.74 78.288 180.348 77.8613 179.793 77.568C179.244 77.2693 178.574 77.12 177.785 77.12C176.836 77.12 176.062 77.3333 175.465 77.76C174.868 78.1867 174.468 78.7867 174.265 79.56L175.409 79.896C175.574 79.32 175.86 78.8987 176.265 78.632C176.676 78.3653 177.177 78.232 177.769 78.232C178.59 78.232 179.177 78.424 179.529 78.808C179.881 79.1867 180.062 79.7653 180.073 80.544C179.689 80.5973 179.265 80.6533 178.801 80.712C178.342 80.7707 177.881 80.8373 177.417 80.912C176.953 80.9867 176.526 81.072 176.137 81.168C175.492 81.3387 174.964 81.624 174.553 82.024C174.142 82.4187 173.937 82.9707 173.937 83.68C173.937 84.1387 174.046 84.5627 174.265 84.952C174.484 85.3413 174.812 85.6533 175.249 85.888C175.692 86.1227 176.238 86.24 176.889 86.24ZM177.025 85.224C176.561 85.224 176.188 85.1493 175.905 85C175.628 84.8453 175.425 84.6507 175.297 84.416C175.174 84.176 175.113 83.9307 175.113 83.68C175.113 83.2107 175.27 82.8587 175.585 82.624C175.9 82.3893 176.241 82.2187 176.609 82.112C177.084 81.984 177.636 81.88 178.265 81.8C178.894 81.72 179.492 81.6453 180.057 81.576C180.057 81.7733 180.049 82 180.033 82.256C180.022 82.5067 179.993 82.7387 179.945 82.952C179.833 83.6027 179.524 84.144 179.017 84.576C178.516 85.008 177.852 85.224 177.025 85.224ZM183.3 86H184.484V80.424C184.484 79.7467 184.668 79.2053 185.036 78.8C185.404 78.3893 185.886 78.184 186.484 78.184C187.081 78.184 187.561 78.384 187.924 78.784C188.292 79.1787 188.476 79.72 188.476 80.408L188.468 86H189.628L189.636 80.424C189.636 79.8853 189.734 79.4533 189.932 79.128C190.134 78.7973 190.39 78.5573 190.7 78.408C191.009 78.2587 191.326 78.184 191.652 78.184C192.222 78.184 192.692 78.376 193.06 78.76C193.433 79.1387 193.62 79.6613 193.62 80.328L193.612 86H194.788L194.796 80.104C194.796 79.192 194.534 78.4693 194.012 77.936C193.494 77.3973 192.798 77.128 191.924 77.128C191.348 77.128 190.83 77.2587 190.372 77.52C189.913 77.776 189.558 78.1307 189.308 78.584C189.073 78.1093 188.734 77.7493 188.292 77.504C187.854 77.2533 187.353 77.128 186.788 77.128C186.276 77.128 185.809 77.232 185.388 77.44C184.966 77.6427 184.622 77.92 184.356 78.272V77.36H183.3V86ZM197.67 83.12H198.846V74.48H197.67V83.12ZM197.67 86H198.846V84.68H197.67V86Z" fill="#666666"/>
<path d="M61.68 24H70.8885V21.627H64.2105V8.88H61.68V24ZM71.8773 10.938H74.4078V8.6175H71.8773V10.938ZM71.8773 24H74.4078V12.66H71.8773V24ZM79.619 24H82.16L86.276 12.66H83.735L80.8895 20.8815L78.0335 12.66H75.503L79.619 24ZM91.9058 24.315C92.9978 24.315 93.9953 24.035 94.8983 23.475C95.8083 22.908 96.4803 22.11 96.9143 21.081L94.4153 20.325C93.9113 21.403 93.0258 21.942 91.7588 21.942C90.8978 21.942 90.2188 21.6935 89.7218 21.1965C89.2248 20.6925 88.9273 19.9715 88.8293 19.0335H97.0403C97.1383 17.6685 96.9878 16.4855 96.5888 15.4845C96.1898 14.4835 95.5773 13.71 94.7513 13.164C93.9323 12.618 92.9348 12.345 91.7588 12.345C90.6458 12.345 89.6658 12.597 88.8188 13.101C87.9718 13.598 87.3103 14.305 86.8343 15.222C86.3583 16.139 86.1203 17.217 86.1203 18.456C86.1203 19.604 86.3618 20.619 86.8448 21.501C87.3348 22.383 88.0138 23.0725 88.8818 23.5695C89.7498 24.0665 90.7578 24.315 91.9058 24.315ZM91.8638 14.5605C92.6478 14.5605 93.2498 14.767 93.6698 15.18C94.0968 15.586 94.3663 16.2335 94.4783 17.1225H88.8923C89.1933 15.4145 90.1838 14.5605 91.8638 14.5605ZM105.22 24H107.751V11.253H112.644V8.88H100.327V11.253H105.22V24ZM112.277 24H114.818V18.2355C114.818 17.5775 114.937 16.993 115.175 16.482C115.42 15.971 115.801 15.5755 116.319 15.2955C116.669 15.0925 117.061 14.9735 117.495 14.9385C117.929 14.8965 118.318 14.9245 118.661 15.0225V12.66C118.15 12.583 117.625 12.5935 117.086 12.6915C116.547 12.7825 116.067 12.9715 115.647 13.2585C115.409 13.4055 115.196 13.584 115.007 13.794C114.818 13.997 114.653 14.2245 114.513 14.4765V12.66H112.277V24ZM122.569 24.315C123.472 24.315 124.238 24.168 124.868 23.874C125.505 23.573 126.065 23.1075 126.548 22.4775V24H128.764V17.0385C128.764 16.5485 128.743 16.097 128.701 15.684C128.659 15.264 128.536 14.8545 128.333 14.4555C127.962 13.7065 127.392 13.1675 126.622 12.8385C125.859 12.5095 124.973 12.345 123.965 12.345C122.635 12.345 121.575 12.6355 120.784 13.2165C119.993 13.7975 119.457 14.5675 119.177 15.5265L121.487 16.251C121.676 15.67 122.009 15.2605 122.485 15.0225C122.961 14.7845 123.454 14.6655 123.965 14.6655C124.735 14.6655 125.302 14.823 125.666 15.138C126.03 15.446 126.237 15.9255 126.286 16.5765C125.292 16.7235 124.368 16.867 123.514 17.007C122.667 17.14 121.946 17.3045 121.351 17.5005C120.455 17.8085 119.8 18.246 119.387 18.813C118.974 19.373 118.768 20.066 118.768 20.892C118.768 21.515 118.911 22.0855 119.198 22.6035C119.492 23.1215 119.923 23.538 120.49 23.853C121.057 24.161 121.75 24.315 122.569 24.315ZM123.073 22.299C122.478 22.299 122.023 22.1625 121.708 21.8895C121.4 21.6165 121.246 21.2735 121.246 20.8605C121.246 20.4895 121.365 20.1885 121.603 19.9575C121.848 19.7265 122.187 19.5305 122.621 19.3695C123.02 19.2365 123.5 19.121 124.06 19.023C124.62 18.918 125.351 18.7955 126.254 18.6555C126.247 18.9215 126.23 19.219 126.202 19.548C126.174 19.87 126.107 20.1605 126.002 20.4195C125.918 20.6785 125.754 20.955 125.509 21.249C125.271 21.543 124.949 21.7915 124.543 21.9945C124.137 22.1975 123.647 22.299 123.073 22.299ZM135.044 24.315C135.716 24.315 136.321 24.2135 136.86 24.0105C137.399 23.8075 137.872 23.524 138.278 23.16V24H140.514V8.88H137.963V13.2165C137.585 12.9365 137.161 12.723 136.692 12.576C136.223 12.422 135.705 12.345 135.138 12.345C134.067 12.345 133.136 12.604 132.345 13.122C131.561 13.64 130.952 14.3505 130.518 15.2535C130.084 16.1565 129.867 17.182 129.867 18.33C129.867 19.464 130.081 20.4825 130.508 21.3855C130.935 22.2885 131.537 23.0025 132.314 23.5275C133.091 24.0525 134.001 24.315 135.044 24.315ZM135.432 22.047C134.774 22.047 134.232 21.8825 133.805 21.5535C133.378 21.2175 133.059 20.7695 132.849 20.2095C132.646 19.6495 132.545 19.023 132.545 18.33C132.545 17.644 132.65 17.021 132.86 16.461C133.077 15.894 133.402 15.446 133.836 15.117C134.277 14.781 134.837 14.613 135.516 14.613C136.482 14.613 137.182 14.956 137.616 15.642C138.057 16.328 138.278 17.224 138.278 18.33C138.278 19.429 138.057 20.325 137.616 21.018C137.182 21.704 136.454 22.047 135.432 22.047ZM142.668 10.938H145.199V8.6175H142.668V10.938ZM142.668 24H145.199V12.66H142.668V24ZM147.323 24H149.885V18.1725C149.885 17.2555 150.015 16.5485 150.274 16.0515C150.54 15.5475 150.876 15.201 151.282 15.012C151.695 14.816 152.115 14.718 152.542 14.718C153.144 14.718 153.623 14.851 153.98 15.117C154.337 15.376 154.6 15.7085 154.768 16.1145C154.943 16.5135 155.055 16.93 155.104 17.364C155.16 17.798 155.188 18.19 155.188 18.54V24H157.75V17.6685C157.75 17.4025 157.725 17.049 157.676 16.608C157.634 16.167 157.536 15.7015 157.382 15.2115C157.228 14.7215 156.99 14.2595 156.668 13.8255C156.346 13.3845 155.909 13.0275 155.356 12.7545C154.81 12.4745 154.12 12.3345 153.287 12.3345C152.468 12.3345 151.747 12.478 151.124 12.765C150.508 13.045 149.994 13.43 149.581 13.92V12.66H147.323V24ZM164.036 24.315C164.624 24.315 165.16 24.2345 165.643 24.0735C166.133 23.9195 166.57 23.7025 166.955 23.4225V24.504C166.969 25.309 166.721 25.918 166.21 26.331C165.706 26.744 165.058 26.9505 164.267 26.9505C163.819 26.9505 163.396 26.849 162.997 26.646C162.598 26.443 162.293 26.1385 162.083 25.7325L159.752 26.8875C160.193 27.6575 160.816 28.2595 161.621 28.6935C162.433 29.1345 163.312 29.355 164.257 29.355C165.538 29.355 166.637 29.0925 167.554 28.5675C168.478 28.0495 169.069 27.241 169.328 26.142C169.384 25.89 169.423 25.6345 169.444 25.3755C169.472 25.1165 169.486 24.84 169.486 24.546V12.66H167.27V13.479C166.871 13.115 166.409 12.835 165.884 12.639C165.359 12.443 164.775 12.345 164.131 12.345C163.06 12.345 162.129 12.604 161.338 13.122C160.554 13.64 159.945 14.3505 159.511 15.2535C159.077 16.1565 158.86 17.182 158.86 18.33C158.86 19.464 159.073 20.4825 159.5 21.3855C159.927 22.2885 160.529 23.0025 161.306 23.5275C162.083 24.0525 162.993 24.315 164.036 24.315ZM164.425 22.047C163.767 22.047 163.224 21.8825 162.797 21.5535C162.37 21.2175 162.052 20.7695 161.842 20.2095C161.639 19.6495 161.537 19.023 161.537 18.33C161.537 17.644 161.642 17.021 161.852 16.461C162.069 15.894 162.395 15.446 162.829 15.117C163.27 14.781 163.83 14.613 164.509 14.613C165.475 14.613 166.175 14.956 166.609 15.642C167.05 16.328 167.27 17.224 167.27 18.33C167.27 19.429 167.05 20.325 166.609 21.018C166.175 21.704 165.447 22.047 164.425 22.047Z" fill="black"/>
<path opacity="0.4" d="M9.5352 22.4L14.3218 16.1788L19.7818 20.4678L24.466 14.4222" stroke="#200E32" stroke-width="2" stroke-linecap="round" stroke-linejoin="round"/>
<path d="M29.926 8.5524C31.6237 8.5524 33 7.17613 33 5.47841C33 3.78069 31.6237 2.40442 29.926 2.40442C28.2283 2.40442 26.852 3.78069 26.852 5.47841C26.852 7.17613 28.2283 8.5524 29.926 8.5524Z" stroke="#200E32" stroke-width="2" stroke-linecap="round" stroke-linejoin="round"/>
<path d="M21.8164 3.75122H10.1938C5.37785 3.75122 2.39169 7.16188 2.39169 11.9778V24.9032C2.39169 29.7191 5.3193 33.1151 10.1938 33.1151H23.9535C28.7694 33.1151 31.7556 29.7191 31.7556 24.9032V13.6465" stroke="#200E32" stroke-width="2" stroke-linecap="round" stroke-linejoin="round"/>
</svg>
