<svg width="36" height="36" viewBox="0 0 36 36" fill="none" xmlns="http://www.w3.org/2000/svg">
<path opacity="0.4" d="M9.5352 22.4L14.3218 16.1788L19.7818 20.4678L24.466 14.4222" stroke="#200E32" stroke-width="2" stroke-linecap="round" stroke-linejoin="round"/>
<path d="M29.926 8.5524C31.6237 8.5524 33 7.17613 33 5.47841C33 3.78069 31.6237 2.40442 29.926 2.40442C28.2283 2.40442 26.852 3.78069 26.852 5.47841C26.852 7.17613 28.2283 8.5524 29.926 8.5524Z" stroke="#200E32" stroke-width="2" stroke-linecap="round" stroke-linejoin="round"/>
<path d="M21.8164 3.75122H10.1938C5.37785 3.75122 2.39169 7.16188 2.39169 11.9778V24.9032C2.39169 29.7191 5.3193 33.1151 10.1938 33.1151H23.9535C28.7694 33.1151 31.7556 29.7191 31.7556 24.9032V13.6465" stroke="#200E32" stroke-width="2" stroke-linecap="round" stroke-linejoin="round"/>
</svg>
