<svg width="104" height="18" viewBox="0 0 104 18" fill="none" xmlns="http://www.w3.org/2000/svg">
<path d="M6.89746 17.2951C8.48344 17.2951 9.8378 16.6935 10.9605 15.4902C12.0833 14.2869 12.6447 12.8123 12.6447 11.0664C12.6447 9.32044 12.0833 7.84584 10.9605 6.64256C9.8378 5.43928 8.48344 4.83764 6.89746 4.83764C5.24867 4.83764 3.97675 5.41176 3.08169 6.55998V0.449219H0.0432129V16.9648H3.08169V15.5728C3.97675 16.721 5.24867 17.2951 6.89746 17.2951ZM6.33216 14.3931C5.39 14.3931 4.61271 14.0864 4.0003 13.4729C3.3879 12.8438 3.08169 12.0416 3.08169 11.0664C3.08169 10.0912 3.3879 9.29292 4.0003 8.67162C4.61271 8.05032 5.39 7.73967 6.33216 7.73967C7.27433 7.73967 8.05554 8.05032 8.6758 8.67162C9.29605 9.29292 9.60618 10.0912 9.60618 11.0664C9.60618 12.0416 9.29605 12.8398 8.6758 13.4611C8.05554 14.0824 7.27433 14.3931 6.33216 14.3931ZM17.8266 16.9648V11.3259C17.8266 10.1934 18.1917 9.38336 18.9218 8.89576C19.652 8.40815 20.4803 8.21941 21.4068 8.32951V4.93202C20.606 4.93202 19.8797 5.12077 19.228 5.49827C18.5764 5.87577 18.1092 6.44201 17.8266 7.19701V5.16796H14.7881V16.9648H17.8266ZM29.0148 17.2951C31.276 17.2951 32.9876 16.4536 34.1496 14.7706L31.6999 13.355C31.1032 14.1414 30.2239 14.5346 29.0619 14.5346C27.2561 14.5346 26.149 13.7954 25.7408 12.3168H34.6207C34.6992 11.8764 34.7384 11.4596 34.7384 11.0664C34.7384 9.30471 34.1771 7.82618 33.0543 6.63076C31.9316 5.43535 30.5065 4.83764 28.7792 4.83764C26.9577 4.83764 25.466 5.43142 24.304 6.61897C23.1419 7.80652 22.5609 9.28899 22.5609 11.0664C22.5609 12.8595 23.1498 14.3459 24.3275 15.5256C25.5052 16.7053 27.0676 17.2951 29.0148 17.2951ZM31.6999 9.95747H25.6936C25.8664 9.20248 26.2197 8.61657 26.7536 8.19974C27.2875 7.78292 27.9627 7.57451 28.7792 7.57451C29.4702 7.57451 30.0865 7.77113 30.6282 8.16435C31.17 8.55758 31.5272 9.15529 31.6999 9.95747ZM41.9695 17.2951C43.6183 17.2951 44.8981 16.721 45.8089 15.5728V16.9648H48.8473V5.16796H45.8089V6.55998C44.8981 5.41176 43.6183 4.83764 41.9695 4.83764C40.3993 4.83764 39.0528 5.43928 37.93 6.64256C36.8073 7.84584 36.2459 9.32044 36.2459 11.0664C36.2459 12.8123 36.8073 14.2869 37.93 15.4902C39.0528 16.6935 40.3993 17.2951 41.9695 17.2951ZM42.5348 14.3931C41.5927 14.3931 40.8154 14.0864 40.203 13.4729C39.5906 12.8438 39.2844 12.0416 39.2844 11.0664C39.2844 10.0912 39.5906 9.29292 40.203 8.67162C40.8154 8.05032 41.5927 7.73967 42.5348 7.73967C43.477 7.73967 44.2582 8.05032 44.8785 8.67162C45.4987 9.29292 45.8089 10.0912 45.8089 11.0664C45.8089 12.0416 45.4987 12.8398 44.8785 13.4611C44.2582 14.0824 43.477 14.3931 42.5348 14.3931ZM54.6417 16.9648V11.609L58.9285 16.9648H62.4616L57.5859 10.9956L62.3203 5.16796H58.693L54.6417 10.3586V0.449219H51.6032V16.9648H54.6417ZM69.6692 17.2715C71.3965 17.2715 72.8647 16.6738 74.0738 15.4784C75.2829 14.283 75.8875 12.8123 75.8875 11.0664C75.8875 9.32044 75.2829 7.84977 74.0738 6.65436C72.8647 5.45894 71.3965 4.86124 69.6692 4.86124C67.9419 4.86124 66.4776 5.45894 65.2763 6.65436C64.0751 7.84977 63.4744 9.32044 63.4744 11.0664C63.4744 12.8123 64.0751 14.283 65.2763 15.4784C66.4776 16.6738 67.9419 17.2715 69.6692 17.2715ZM69.6692 15.2661C68.5072 15.2661 67.5257 14.865 66.7249 14.0628C65.9241 13.2606 65.5237 12.2618 65.5237 11.0664C65.5237 9.87096 65.9241 8.87216 66.7249 8.06998C67.5257 7.26779 68.5072 6.8667 69.6692 6.8667C70.8469 6.8667 71.8362 7.26779 72.637 8.06998C73.4378 8.87216 73.8383 9.87096 73.8383 11.0664C73.8383 12.2618 73.4378 13.2606 72.637 14.0628C71.8362 14.865 70.8469 15.2661 69.6692 15.2661ZM82.6239 17.2715C84.3355 17.2715 85.6075 16.603 86.4397 15.2661V16.9648H88.4889V5.16796H86.4397V11.4203C86.4397 12.7415 86.1256 13.7207 85.4975 14.3577C84.8694 14.9947 84.045 15.3132 83.0244 15.3132C82.1136 15.3132 81.3991 15.0498 80.8809 14.5229C80.3627 13.9959 80.1036 13.2527 80.1036 12.2932V5.16796H78.0544V12.4112C78.0544 13.9055 78.4706 15.0891 79.3028 15.9621C80.1351 16.835 81.2421 17.2715 82.6239 17.2715ZM94.0712 16.5283C94.9035 17.0552 96.2147 17.2007 98.0048 16.9648V15.1245C97.3139 15.1559 96.7329 15.1677 96.2618 15.1599C95.7907 15.152 95.4413 15.0262 95.2136 14.7824C94.9859 14.5386 94.8721 14.1257 94.8721 13.5437V7.14983H98.0048V5.16796H94.8721V1.86484L92.8229 2.47828V5.16796H90.491V7.14983H92.8229V13.5437C92.8229 15.0065 93.239 16.0014 94.0712 16.5283Z" fill="#170439"/>
<path d="M101.923 17.2952C102.406 17.2952 102.806 17.1311 103.125 16.8028C103.443 16.4745 103.603 16.0771 103.603 15.6106C103.603 15.1441 103.443 14.7467 103.125 14.4184C102.806 14.0902 102.406 13.926 101.923 13.926C101.458 13.926 101.062 14.0902 100.735 14.4184C100.408 14.7467 100.244 15.1441 100.244 15.6106C100.244 16.0771 100.408 16.4745 100.735 16.8028C101.062 17.1311 101.458 17.2952 101.923 17.2952Z" fill="#14CC60"/>
</svg>
